<mxfile host="65bd71144e">
    <diagram id="qspYXHKXKbUXUEhdgwAc" name="Seri">
        <mxGraphModel dx="1712" dy="716" grid="1" gridSize="10" guides="1" tooltips="1" connect="1" arrows="1" fold="1" page="1" pageScale="1" pageWidth="827" pageHeight="1169" math="0" shadow="0">
            <root>
                <mxCell id="0"/>
                <mxCell id="1" parent="0"/>
                <mxCell id="52" value="" style="rounded=0;whiteSpace=wrap;html=1;fontSize=29;fontStyle=1;strokeWidth=2;fillColor=#f5f5f5;fontColor=#333333;strokeColor=default;" parent="1" vertex="1">
                    <mxGeometry x="240" y="60" width="1920" height="1080" as="geometry"/>
                </mxCell>
                <mxCell id="53" value="Rangkaian Dasar" style="rounded=1;whiteSpace=wrap;html=1;fontSize=40;fontStyle=1;strokeWidth=3;fillColor=#6d8764;strokeColor=none;fontColor=#ffffff;" parent="1" vertex="1">
                    <mxGeometry x="926.25" y="100" width="517.5" height="100" as="geometry"/>
                </mxCell>
                <mxCell id="54" value="Dasar Elektronika" style="rounded=1;whiteSpace=wrap;html=1;fontSize=29;fontStyle=1;strokeWidth=3;fillColor=#a0522d;strokeColor=none;fontColor=#ffffff;" parent="1" vertex="1">
                    <mxGeometry x="270" y="90" width="300" height="60" as="geometry"/>
                </mxCell>
                <mxCell id="55" value="" style="rounded=1;whiteSpace=wrap;html=1;strokeWidth=4;arcSize=2;fillColor=#fff2cc;strokeColor=#d6b656;" parent="1" vertex="1">
                    <mxGeometry x="300" y="291" width="840" height="800" as="geometry"/>
                </mxCell>
                <mxCell id="92" value="" style="shape=image;verticalLabelPosition=bottom;labelBackgroundColor=default;verticalAlign=top;aspect=fixed;imageAspect=0;image=data:image/png,iVBORw0KGgoAAAANSUhEUgAAAQAAAAEACAYAAABccqhmAAAABHNCSVQICAgIfAhkiAAAAAlwSFlzAAAHYgAAB2IBOHqZ2wAAABl0RVh0U29mdHdhcmUAd3d3Lmlua3NjYXBlLm9yZ5vuPBoAAAp8SURBVHic7d1NjBtnHcfx3zNje71v2by/NDSNgAq1iL5Q1MIBCYFEOSGEiqgQXLkWIYHEbYV6QY3KnQucUMWhXIvooTc4oBbaQpoUFQKtINlsNvuWtT2eeTgEKtI0K3s868nO7/s5bjSzf21mvvbjscdB2Le+sLzcSnX251J8SlJ33O1jUWjQ66nIslK/P2233knnrn7yleXlXqkdoHZJ3QOgvFRnnpbit1Xi5JekkCTqdEttKknKs+FHi53j50rvALUjAPtYDMl9k+4jJJMdAlHxE5POgPoQgH0siUWoewZF1T8DSiMAgDECABgjAIAxAgAYIwCAMQIAGCMAgDECABgjAIAxAgAYIwCAMQIAGCMAgDECABgjAICxVt0D7Hcb5x47OhPDyWFIZ6b9u5/rv3PPv/IDE++n194qve1iR4svnXvisTLbJtu9A0meHS2G+dh/u3YSt4at5C/d5bculvnduImbOZSwce6xo50k/WGUvinpTN3z7GsxSv2BtLmtsLMjxfE2D610WHQ6r4aZ1neIwfgIwJh6zz/xZYX4Qow6VPcsjbPTV1hZvRmFMcUkxGR+/kczz174yR5M1lgEYAw7zz/+eUkvS+rUPUtj9QcKl1fGfiYg6ebRvDD//e6zF39a9VhNRQBGFJ97aL6Xdt+WdKruWZourG9I1zfLbZwk+czS7MmwfPFqtVM1E1cBRrSTdr8rTv6piAcWpVDy0CyKtD/Qz6qdqLkIwIhC0NfrnsFGCIqzE1xUyQZfrG6YZiMAo4p6sO4RrHTKX6EOw3yxwkkajQCMjlf9p6nsEkBSjAXH9Yj4Q42OF0ynKUzw5y5zBcEUAQCMEQDAGAEAjBEAwBifBjQUOolaDxxQeqwrRSlf6Wn41obioKh7NEwZAXDTCuo8cVRhLn3/R+mpWSVLHfV/tyINeQndCUsAM62zC7ec/P8T5lK1zi7UMBHqRADMJAfbpf4NzUQA3CS7vMFmt39DIxEAwBgBAIxxFaDBwmJLoXPrC36hdeen+aEVlBy59WO4cZArbg73ZD7UjwA0UJhN1X7ooJKD4925LCy21fnM4dt+XqwNlL1xXXEnr2pE3CVYAjRNEtT59OGxT/5dd3moo86jh3iRsIEIQMOkx2YUFqp/YhcW20qPTv2rD7DHCEDDhNnb3+RT2b7nWDE2DQFomHhj79bpxY1sz/aNehCAhslXeirWqz9Ri+uZipV+5ftFvQhA00Qpe22t0pO1WOkr++Mat9pqIBZ1DRT7uQavXlPopgoztza+9cCSkqUPf89/sZ5peH79A/sqFHtc/msqAtBgsZfffvIWuzyMF3FPlg+4e7EEAIwRAMAYAXCz2xIg51U+NwTATLE2KPVvaCYCYGb4t23F7ds/3Re3hxpe2q5hItSJqwBuiqj+71fVvn9ByYnuzR9d7in76xZLAEMEwNGwUHZ+Qzq/UfckqBlLAMAYAQCMEQDAGAEAjBEAwBgBAIwRAMAYAQCMEQDAGO8EHNG7R47VPYKV9aUjunbPvRPs4b3KZmkyAjCiX3zpybpHsHJ5mOlSf5JPJ75U2SxNxhIAMEYAAGMEADBGAABjBAAwRgAAYwQAMEYAAGMEADBGAABjBAAwRgAAYwQAMEYAAGMEADBGAABjBAAwRgAAYwQAMEYAAGMEADBGAABjBAAwRgAAYwQAMEYAAGMEADBGAABjBAAwRgAAYwQAMEYAAGMEADBGAABjBAAwRgAAYwQAMEYAAGMEADBGAABjBAAwRgAAYwQAMEYAAGMEADBGAABjBAAwRgAAYwQAMEYAAGMEADBGAABjBAAwRgAAYwQAMEYAAGMEADBGAABjBAAwRgAAYwQAMNaqewAXazcy/WtzRzHWPcney7Jc165tqciLsbcNSaKPnVrS7JHZPZgMH0QApuDfGz29/PYVRYez/7/iINfwynqpbS/9/aoefPgjSo7PVTwVPoglwBRcWrthdfJLUuikUqv84fXPd69XOA3uhABMwbDwOvnfF0LpTWMx/vIB4yMAgDECABgjAIAxAgAYIwCAMQIAGCMAgDECABgjAIAxAgAYIwCAMQIAGCMAgDECABgjAIAxAgAYIwCAMQIAGCMAgDECMAWdtPy98fa1Ce6FmE5wQ1GMjr/yFNx/fEEzZgd0sT2QSnwvgHTzuwHu//jRiifCh+F7AabgYLejr33qtNZuDCZ5UNw3Blmuzc2edN/hsbdNEum+4we01ZIu9Qd7MB3+HwGYkk6a6MRit+4xpufI/ESbbw2zigbBbryelwK4BQEAjBEAwBgBAIwRAMAYAQCMEQDAGAEAjBEAwBgBAIwRAMAYAQCMEQDAGJ8GnJJhEbXRyxQNPg48zAtt3eiX2jZR0KnD8zw0TQkBmIKNXqbfXLisXpbXPcrUFNt95WvbpbYNaaLHP3tWmuPw3Gt0dgouXtmyOvklKZmfkdJyh1fMC114e6XiifBhCMAU9EveGmvfS8rfC3FoFsy6EADAGAEAjBEAwBgBAIwRAMAYAQCMEQDAGAEAjBEAwBgBAIwRAMAYAQCMEQDAGAEAjBEAwBgBAIwRAMAYAQCMEQDAGAGYgpL3xrQWJrifIEbHoTkF9x6ak+R1QMdBLk1wY8/T9xyscBrcCTden4LTB2b1lQdOamWzJ4PvBdEwL7R6dUvFmcMltg46c3JJS8fndKk/qHw23IoATMmx+Y6OzXfqHmN6Tk/2CH55mFU0CHbDEgAwRgAAYwQAMEYAAGMEADBGAABjBAAwRgAAYwQAMEYAAGMEADBGAABjBAAwxqcBRzSTDesewUq7KJTWPYQBAjCiH/z6hbpH8LK5rXDteunNuxWO0mQsAQBjBAAwRgAAYwQAMEYAAGMEADBGAABjBAAwRgAAYwQAMEYAAGMEADBGAABjBAAwRgAAYwQAMEYAAGPcEaipkqDkUEehm0ghlNtHjIr9XMW1TCpitfPhrkAAGigsttR5+JDCfDX/vXFrqMHra4qb3BexaVgCNE0a1HnkcGUnvySFhZY6jxyWkpLPJHDXIgANkx7vKsxVfz/dMJcqPTFT+X5RLwLQMGFm726mHWZYMTYNAWiYYmvv1unFZrZn+0Y9CEDDFFd7Kq72q9/val/FavX7Rb0IQAMNXr+u/L0dKVZw6S5G5e/e0OBP5b+kA3cvFnVNlBXK3ryu7HxQ6Ez2mkAc5FLOewCaigA0WR4Vd7h2jztjCQAYIwCAMQIAGCMAgDECABgjAIAxAgAYIwCAMQIAGCMAgDECMLqi7gGcBE3w+YOy90A0RABGd6XuAZzEYV5625CE8hubIQAjC6/VPYGTkJX/EFORtlYrHKXRCMCoYnyh7hFs5IW00yu/faf1YnXDNBsBGFF3c+6Xinqz7jkchPWN0tvGdqvXbXeeqXCcRiMAIwrLrwxDWjwl6VrdszTa9o60tV1u2ySJrbm5r4blPw+qHaq5CMAYut/7w4UQ9TkpvlH3LI0To8L6psLqmspcAIjtVi9dXHiy/ePzv61+uObiekkJ8VffSHvv/eNbivFpSY9KOiFiOr4YpWEu7fQVtralbMy7DqdJEVutq2q3Xuy2O8/wyD++/wA/A0R8GXInIQAAAABJRU5ErkJggg==;" vertex="1" parent="1">
                    <mxGeometry x="292" y="450" width="256" height="256" as="geometry"/>
                </mxCell>
                <mxCell id="93" value="" style="shape=image;verticalLabelPosition=bottom;labelBackgroundColor=default;verticalAlign=top;aspect=fixed;imageAspect=0;image=data:image/png,iVBORw0KGgoAAAANSUhEUgAAAQAAAAEACAYAAABccqhmAAAABHNCSVQICAgIfAhkiAAAAAlwSFlzAAAHYgAAB2IBOHqZ2wAAABl0RVh0U29mdHdhcmUAd3d3Lmlua3NjYXBlLm9yZ5vuPBoAAAp8SURBVHic7d1NjBtnHcfx3zNje71v2by/NDSNgAq1iL5Q1MIBCYFEOSGEiqgQXLkWIYHEbYV6QY3KnQucUMWhXIvooTc4oBbaQpoUFQKtINlsNvuWtT2eeTgEKtI0K3s868nO7/s5bjSzf21mvvbjscdB2Le+sLzcSnX251J8SlJ33O1jUWjQ66nIslK/P2233knnrn7yleXlXqkdoHZJ3QOgvFRnnpbit1Xi5JekkCTqdEttKknKs+FHi53j50rvALUjAPtYDMl9k+4jJJMdAlHxE5POgPoQgH0siUWoewZF1T8DSiMAgDECABgjAIAxAgAYIwCAMQIAGCMAgDECABgjAIAxAgAYIwCAMQIAGCMAgDECABgjAICxVt0D7Hcb5x47OhPDyWFIZ6b9u5/rv3PPv/IDE++n194qve1iR4svnXvisTLbJtu9A0meHS2G+dh/u3YSt4at5C/d5bculvnduImbOZSwce6xo50k/WGUvinpTN3z7GsxSv2BtLmtsLMjxfE2D610WHQ6r4aZ1neIwfgIwJh6zz/xZYX4Qow6VPcsjbPTV1hZvRmFMcUkxGR+/kczz174yR5M1lgEYAw7zz/+eUkvS+rUPUtj9QcKl1fGfiYg6ebRvDD//e6zF39a9VhNRQBGFJ97aL6Xdt+WdKruWZourG9I1zfLbZwk+czS7MmwfPFqtVM1E1cBRrSTdr8rTv6piAcWpVDy0CyKtD/Qz6qdqLkIwIhC0NfrnsFGCIqzE1xUyQZfrG6YZiMAo4p6sO4RrHTKX6EOw3yxwkkajQCMjlf9p6nsEkBSjAXH9Yj4Q42OF0ynKUzw5y5zBcEUAQCMEQDAGAEAjBEAwBifBjQUOolaDxxQeqwrRSlf6Wn41obioKh7NEwZAXDTCuo8cVRhLn3/R+mpWSVLHfV/tyINeQndCUsAM62zC7ec/P8T5lK1zi7UMBHqRADMJAfbpf4NzUQA3CS7vMFmt39DIxEAwBgBAIxxFaDBwmJLoXPrC36hdeen+aEVlBy59WO4cZArbg73ZD7UjwA0UJhN1X7ooJKD4925LCy21fnM4dt+XqwNlL1xXXEnr2pE3CVYAjRNEtT59OGxT/5dd3moo86jh3iRsIEIQMOkx2YUFqp/YhcW20qPTv2rD7DHCEDDhNnb3+RT2b7nWDE2DQFomHhj79bpxY1sz/aNehCAhslXeirWqz9Ri+uZipV+5ftFvQhA00Qpe22t0pO1WOkr++Mat9pqIBZ1DRT7uQavXlPopgoztza+9cCSkqUPf89/sZ5peH79A/sqFHtc/msqAtBgsZfffvIWuzyMF3FPlg+4e7EEAIwRAMAYAXCz2xIg51U+NwTATLE2KPVvaCYCYGb4t23F7ds/3Re3hxpe2q5hItSJqwBuiqj+71fVvn9ByYnuzR9d7in76xZLAEMEwNGwUHZ+Qzq/UfckqBlLAMAYAQCMEQDAGAEAjBEAwBgBAIwRAMAYAQCMEQDAGO8EHNG7R47VPYKV9aUjunbPvRPs4b3KZmkyAjCiX3zpybpHsHJ5mOlSf5JPJ75U2SxNxhIAMEYAAGMEADBGAABjBAAwRgAAYwQAMEYAAGMEADBGAABjBAAwRgAAYwQAMEYAAGMEADBGAABjBAAwRgAAYwQAMEYAAGMEADBGAABjBAAwRgAAYwQAMEYAAGMEADBGAABjBAAwRgAAYwQAMEYAAGMEADBGAABjBAAwRgAAYwQAMEYAAGMEADBGAABjBAAwRgAAYwQAMEYAAGMEADBGAABjBAAwRgAAYwQAMEYAAGMEADBGAABjBAAwRgAAYwQAMEYAAGMEADBGAABjBAAwRgAAYwQAMNaqewAXazcy/WtzRzHWPcney7Jc165tqciLsbcNSaKPnVrS7JHZPZgMH0QApuDfGz29/PYVRYez/7/iINfwynqpbS/9/aoefPgjSo7PVTwVPoglwBRcWrthdfJLUuikUqv84fXPd69XOA3uhABMwbDwOvnfF0LpTWMx/vIB4yMAgDECABgjAIAxAgAYIwCAMQIAGCMAgDECABgjAIAxAgAYIwCAMQIAGCMAgDECABgjAIAxAgAYIwCAMQIAGCMAgDECMAWdtPy98fa1Ce6FmE5wQ1GMjr/yFNx/fEEzZgd0sT2QSnwvgHTzuwHu//jRiifCh+F7AabgYLejr33qtNZuDCZ5UNw3Blmuzc2edN/hsbdNEum+4we01ZIu9Qd7MB3+HwGYkk6a6MRit+4xpufI/ESbbw2zigbBbryelwK4BQEAjBEAwBgBAIwRAMAYAQCMEQDAGAEAjBEAwBgBAIwRAMAYAQCMEQDAGJ8GnJJhEbXRyxQNPg48zAtt3eiX2jZR0KnD8zw0TQkBmIKNXqbfXLisXpbXPcrUFNt95WvbpbYNaaLHP3tWmuPw3Gt0dgouXtmyOvklKZmfkdJyh1fMC114e6XiifBhCMAU9EveGmvfS8rfC3FoFsy6EADAGAEAjBEAwBgBAIwRAMAYAQCMEQDAGAEAjBEAwBgBAIwRAMAYAQCMEQDAGAEAjBEAwBgBAIwRAMAYAQCMEQDAGAGYgpL3xrQWJrifIEbHoTkF9x6ak+R1QMdBLk1wY8/T9xyscBrcCTden4LTB2b1lQdOamWzJ4PvBdEwL7R6dUvFmcMltg46c3JJS8fndKk/qHw23IoATMmx+Y6OzXfqHmN6Tk/2CH55mFU0CHbDEgAwRgAAYwQAMEYAAGMEADBGAABjBAAwRgAAYwQAMEYAAGMEADBGAABjBAAwxqcBRzSTDesewUq7KJTWPYQBAjCiH/z6hbpH8LK5rXDteunNuxWO0mQsAQBjBAAwRgAAYwQAMEYAAGMEADBGAABjBAAwRgAAYwQAMEYAAGMEADBGAABjBAAwRgAAYwQAMEYAAGPcEaipkqDkUEehm0ghlNtHjIr9XMW1TCpitfPhrkAAGigsttR5+JDCfDX/vXFrqMHra4qb3BexaVgCNE0a1HnkcGUnvySFhZY6jxyWkpLPJHDXIgANkx7vKsxVfz/dMJcqPTFT+X5RLwLQMGFm726mHWZYMTYNAWiYYmvv1unFZrZn+0Y9CEDDFFd7Kq72q9/val/FavX7Rb0IQAMNXr+u/L0dKVZw6S5G5e/e0OBP5b+kA3cvFnVNlBXK3ryu7HxQ6Ez2mkAc5FLOewCaigA0WR4Vd7h2jztjCQAYIwCAMQIAGCMAgDECABgjAIAxAgAYIwCAMQIAGCMAgDECMLqi7gGcBE3w+YOy90A0RABGd6XuAZzEYV5625CE8hubIQAjC6/VPYGTkJX/EFORtlYrHKXRCMCoYnyh7hFs5IW00yu/faf1YnXDNBsBGFF3c+6Xinqz7jkchPWN0tvGdqvXbXeeqXCcRiMAIwrLrwxDWjwl6VrdszTa9o60tV1u2ySJrbm5r4blPw+qHaq5CMAYut/7w4UQ9TkpvlH3LI0To8L6psLqmspcAIjtVi9dXHiy/ePzv61+uObiekkJ8VffSHvv/eNbivFpSY9KOiFiOr4YpWEu7fQVtralbMy7DqdJEVutq2q3Xuy2O8/wyD++/wA/A0R8GXInIQAAAABJRU5ErkJggg==;" vertex="1" parent="1">
                    <mxGeometry x="292" y="740" width="256" height="256" as="geometry"/>
                </mxCell>
                <mxCell id="94" value="" style="endArrow=none;html=1;strokeWidth=10;exitX=0.5;exitY=0;exitDx=0;exitDy=0;entryX=0.5;entryY=1;entryDx=0;entryDy=0;strokeColor=#a0522d;" edge="1" parent="1" source="93" target="92">
                    <mxGeometry width="50" height="50" relative="1" as="geometry">
                        <mxPoint x="970" y="760" as="sourcePoint"/>
                        <mxPoint x="1020" y="710" as="targetPoint"/>
                    </mxGeometry>
                </mxCell>
                <mxCell id="95" value="" style="endArrow=none;html=1;strokeWidth=10;exitX=0.5;exitY=0;exitDx=0;exitDy=0;entryX=0.5;entryY=1;entryDx=0;entryDy=0;edgeStyle=orthogonalEdgeStyle;strokeColor=#a0522d;" edge="1" parent="1" source="92" target="96">
                    <mxGeometry width="50" height="50" relative="1" as="geometry">
                        <mxPoint x="430" y="750" as="sourcePoint"/>
                        <mxPoint x="430" y="716" as="targetPoint"/>
                        <Array as="points">
                            <mxPoint x="420" y="440"/>
                            <mxPoint x="500" y="440"/>
                            <mxPoint x="500" y="610"/>
                            <mxPoint x="600" y="610"/>
                        </Array>
                    </mxGeometry>
                </mxCell>
                <mxCell id="96" value="" style="shape=image;verticalLabelPosition=bottom;labelBackgroundColor=default;verticalAlign=top;aspect=fixed;imageAspect=0;image=data:image/png,iVBORw0KGgoAAAANSUhEUgAAAQAAAAEACAYAAABccqhmAAAABHNCSVQICAgIfAhkiAAAAAlwSFlzAAAHYgAAB2IBOHqZ2wAAABl0RVh0U29mdHdhcmUAd3d3Lmlua3NjYXBlLm9yZ5vuPBoAACAASURBVHic7Z13lFxnef8/z522s7tayZIly3IvqmsbGa1lWc0S4IorLsGUBEIJ4ReCaSEQwo/fCSEGEgOB/BJKAgRiigDbmGJRrN5suWtXK1my3K0ubZmd2Zm598kfI4Es79yduffO3Cnv5xydo7P3vu/77Ozc733LUwRD06HrzpmEHbsT4TpAEfk5Tu7DsnjHvrBtM1QXCdsAQ3XRtdPHoPIYcPYrr8hO8tZsWdo9GIphhlCwwjbAUG3ko7zq4QfQc4jaH6m6OYZQMQLQbChzi1+Ui6tniKEWMALQbAjx4tc0UUVLDDWAEQCDoYkxAmAwNDFGAAyGJsYIgMHQxBgBMBiaGCMABkMTYwSg2VBsT9cMDYkRgOZje9ErQm8V7TDUANGwDag3dO2sTlTfA9oBdBPLf1Pm7egP266SseSLOPp2oOO4K/0Q+ecwTPKKbjy3g3z0vSizUO3DinxLFvZ0h21XPWGCgcpA106/FZXvA7FjfvwysEQW9RZ/s9YYumrGfCy+A0w98qPtWLxDFvRuCNGsstC106ejshKYfMyPs6i+VRZv+0lIZtUdRgBKRJdf0EZrdhcwcYTLG1nYO18ErbZdXlHFYt2smTiiLOruFcEJ26ZSUUVYO2M9MG+Ey3tJtp0lXQ8PVduuesQsAUqlPbsAZ8SHH2Aea2e+DbZ+r6o2+aDwwNfpdHntzLeBjvTwA0wiPTQf+F01TapXzCZgqdjS6n6D3qErOturY0zzUviM9Q7Xm8QZ5W9lOIoRgFKxrY3AsMsdU4g6f1stc5qWwmc8xeWOYSS/sVrm1DtGAEpElnbvBr7mfpd+VNd3nlsVg5oQXTX9LFD3pCXKV2XBzr1VMqnuMQJQDqL/D9jtckcC2/6napnTdETki0CLyx17Gc5+tlrmNAJGAMpAFm4bQPn0KLfdrGtmLKmGPc2ErpmxBOUm95v4lFz2dF+VTGoIjACUy+7e/wJ9zPUe5RNVsqaZ+KT7ZX2s8LcxlIMRgDKRW7FRud39JmZXyZxm4kLXqyq3y60mlqFcjB+AB2Rx7ypdM3MZ6C1F7jhQXYteifZeNwbbOgfhTDR7NunUa3CyU7GHTwHiYMdRiYJGEWwgV2hp5RBJITKAWv1Y8hxq7SAeewzJPySzN7wY4q91ADhx5EuyTBZvXVVVaxoEIwBeyevfEOUq4NVn/8p3qmGCrlgSZVLH+SCzKbwhZwPTsZkESsEvMQbJcUcaKDjDYGchP1z452TAGeXFmT3SfN35Nlb0MBHrWYg8gsjddG26vypehMJ3UEbaYB0kr39T8fEbFOMK7ANdO/06VP6HY0VA+TmD+Vvl6h1uPgPexluxJMpJHfNRWQKyEPQSRhKg8noFOwf5NOSGIJcCLWMmLZYSSRzAij8I1veZu+FHlRAEXXFmC9GWHwPXHvPjQeAtsqj3vqDHaxaMAPhEV3ROJmZfj8o4VDeyqHd1kDEB2n3LeCT3RtS5BuRyYFxQfRcZEexhyA5CdqAwWygHK+IQSTyDlfgxbXxROjccDMyyQgzApSAXI3qYaPQembdlT1D9NyNGAGoQffzyNqLJ64E3A1eASy7/SmNnIdtf+GfnymsrApHWF4jEvkOq5R9l6cpMRWw0eMYIQA2h3TfMBn0f8BZgTNj2vIpcGrKHCzMDLXOSY0UcYq2bsWJ/L13rf1MZAw3lYgQgZFRvibA1ezPK7Ywc3lp7aB4yfTB8GJx8mY0Foom9xFruZM7GL9ZTGHIjYgQgJHTzta0k5c+BD4GMUKyzDlAtLA3SB8Epc68AwIplSLR/nTmJj4qsLFdJDAFgBKDKaPctcTT7HoS/A04O257AGO6HzP7y9wkAIvFhIq3fZG7Lh4wQVBcjAFVCFaHnureA/ANwVtj2VAaFzGHIHPSwNACiiSGiyU/JRRu/FLxthpEwAlAF9MnrurDkX4FLwralKqgD6f2QOeStfTS5h1j8NunatCJYwwzHYwSgguijN4wjoV9AeRfNGHdhD0NqT8HJqGwsiLX9jjFtN0rnysHAbTMARgAqhm65/lqE/8A9e00TcGRZkN5X/tEhFPYHEu0fkDnrvxm8bQYjAAGjO28ZS2b4ayBvC9uWmsLOQWo35L0k6xWIt6+nve0KMxsIFiMAAaJbb7wEx/kfGnaTzyeqhQ3CzAGvs4E0seTNctGmXwVvXHPSfOvSCqCKaPf1n8RxVmMe/uKIQHICjDkNJFJ+ezubZHjgF7pp3leDN645MTMAnxRi7+W7wI1h21JXOHkYfKEQkuyFeNsWIlMulq77TAEQHxgB8IH2XDMVjdwLzAzblrpEtbAvkPVYWjHa0kdr9GJ5zeZtwRrWPJglgEf0yevno5H1mIffOyLQfjIkiyT6GY18ZiyDw0/q5vlvDNaw5sEIgAe05/obsfgdRVNUGcoiOQHapxQEoVycXIzM4fv0oUv+InjDGh8jAGWiPTe8C+UnQDJsWxqK+BhoPwXEw1dSHSFz+D9087xPBW9YY2P2AMpAe65/P8rXMJ9b5cgNweCLBXfishFIdPyLzN300cDtalDMDKBEtOeG283DXwVirdB+qreZAArD/R/RTXPvDNyuBsUIQAnoluveg+qdmIe/OsSS3pcDKGQHPqQPXmJKtJWA+UKPgm654SZEfwR48Fwx+CI/BP0vgJccqyLQMu5j0rXhnwO3q4GoeQHQzXNiDA2djyVttCQflq6Hq+b4oT3XXYbKL4FYtcY0HMfwAKRe8tZWLCV+wm0yd92PgjWqOLr8gjZacnMQBmltfVK6HvaQIaV61LQA6NppV6HWv/FH99qDwOcYH/mqdHZ7yEFVxtg9N56HOmuBsZUcx1AC6f2Q9lhsyYo4tIxbIHPWbQzWqFei3Z1xDtofoFDDcPyRH+8Cfb8s2nZ/Jcf2Q80KgK6dPh2Vxxi5HPR2VD4si7f+siJjd189GWIbgTMq0b/BA4Mve/cYjCTSaNuZsmD93mCNKqCrZ74R0TuBaSNcTgOzZVHv9kqM7Zfa3QR0eB/Fa8FPQ/QXumbGr3X9tBlBDqsrlkQh9iPMw19btE2GqEfXC3s4iZV+VDXY77uunzZD18z4NaK/YOSHHwr+Iu8NctwgqV0BQCaWcNOV2NaTumbG13XFtGC88iZ2fBFYHEhfhuAQgTFTwPJYzjKfnsKDXb8OwhRdMXucrpl+B7b1OHDl6A1q12O0dgVA2FHinVHgvUStLbpuhq+ce9p9w63IKKW/DeEhUWjzkUg5O3i5Pjj//X5M0NXTFxDN9IJ8nNIrNj3tZ8xKUrt7ABvPO4lcfjvQUUazFxnIn+OlMKc+/qZTidpPACeU29ZQZYb2ek84asVs2sbOktlry16THylQ+jTlpHMX+pDcNFmwsyL7D36p2RlAoeijdTnIzjKanUJHtOzIMNXPWMTs72Ee/vogOREiCW9tnVyEdMpbtuFI4hrKquUgOxHnslp9+KGGBQBAFvVsYiDXifAJCqWgS0AnlT1Qz6MfRllSdjtDOIgciR70+PXNp6foQxd/rfxxrZNKvHMQ4RMM5DplwfaHyh6nitS0AADI1TuGZWHvHahMQ/kuo7mF2VZPOf1r77VnAZ/xbqEhFCJx73kEAIYH3q+PXXJheY20e7QbUL6LyjRZ2HuHl6Votal5ATiKLN76sizufQfqzAOKOXXcz+Kta0rtUxXBtr4JtAVipKG6tIyDaLGT4lFQR8hk7iurzcLeVcDyIlc3os48Wdz7Dlm89WVvRlWfuhGAo8ji7Q+ysHc+qm9HePLIjwcQvkqy7SaRMhzHe274M+D1FTG0WRgegi0PQGYghMEFWifjeS87lz5FN88vOYeACMpQ/Cbg34CBIyY8ierbWdg7XxZvf9CbIeFRs6cApaLrT03K/BfKLj1zJJnnNhqpQGe1SQ/Atg2FBJ8XXul9Te4XP6cCkViOeHyidD3cV25Tr9+9WqLuZgDH4/kPYFufwDz83kkdgt61kEvDCZPDe/ihsBfgJc04gJ2LYUc8BQvV+8MPDSAAXtCtN5wJ+qGw7ahb+vdB73rIH4nHOiHk6mdiFfIKeiU/eLk+unhqcAbVD00pADj6fykeZ2Bw48ALsH3jH8t/WxHoKMVru8K0jAOrVMe843AcITt0V7AG1QdNJwDac81UwNTt88LeXbDrkVfm6xs3uSACoSOQHD/6bcXIprp0w8KLg7OnPmg6AUCtT1OIHzCUw+6n4NknXl3T74Qa2kaJd0DEa+4WBRn+j0DtqQOaSgAKa3+5LWw76gpVeOZxeH4E/yrLgrGlOsdVARFo8bEXkBucrRsvnhWcQbVPUwkADrdjcvuVjjrw9MOw75mRr3dMgkiNTabiHd5PBFDA+VaQ5tQ6TSMA+tRVHaDvDNuOusGxYfsmOPhi8XvC3v0fCRFo8RHTlU/N081LajZ+P2iaRgDIxt5NeaHFzUs+C9vWQb9LEJtYMK6Gpv/HkhjrrcwYFFyE7fTngzWodmkeAUDeFbYFdcHwEPSugcFRPOvGnAhRj8dulcaKQmyM9/Z2umn2iZpCALT7xoVAU23ueCIzUPDuS5cQeT2+hnb/RyLhI5mznU3qg/Ob4qi4KQQAHPP2H43UYdi6FrIleLeKwLgaF4BYq3fHIAAn95HgjKldGl4AdNeSFuBNYdtR0/TvK6z58yWWWmifADGPGXmqScLPMmDoAl2xpOG9RRteABgacwVm8684B4+49tr50tvUkvOPG372ARzbYkz6Y8EZU5s0vgBg3Rq2BTXL3l3w9HGuvaVQLwIQTRQyB3kln39LcMbUJg0tALr5vTHgmrDtqEmKufaORvsJEPdYoCMMYu3e29qZaapLaszTKVgaWgBI7F2Amf6/mue3jOzaWwrjatD5x424DwFwbIuHM+8IzJYapLEFwNIrwjahplAHdm6G3eVkWj+OWj/+O55o0l+yEtt+e3DG1B6NLQCllG1qFhwbnhrFtXc0WsdCog7zp8Z82OxkXxOcIbVHwwqAPnrDOOCCsO2oCfJZ2LYe+nzWp6hF3/9S8FpUFCCfHavr5pdfa6JOaFgBIKYX08i/X6lkM4Uz/sGD/vuqt+n/UaKtPhorJJyGDSJr3AfE0gVhmxA6mUHYuhqG+v33lWyHFh/n6mESifvdB7gsOGNqi8YVAKTp0ju9gqHDBb/+Ulx7S6Fep/9QcF2O+vBc1HzDxpE0rgAoDb1540r/fuhdB7kAK1PVswAARHx49dp5swdQT+jjN04CajRYvcIcehme2lCea+9oJFoLJwD1jNdqwgBOLqKPLZwWnDG1Q0MKADGnOXf/9+6CnQ+BU6Zr72jU+9sf/LkEA+TzrwvGkNqiMQXAYXrYJlQdr669pdAQAuAzetHWi4IxpLZoTD9n4YywTagqz22BPT68+9yItxT8/+sdsQrJQtX22IHTkBuBjSkAyJmUUSS4blGnUKjjgA/vvtFohLf/USJxyHs8FVHnlGCNqQ0aVAC08WcAjg07HoK+PZUdp15Cf0vBTwUjx67zXdCRaVABYHLYBlQUO1dI4hGEd58b0TiM8VFoo9awvFYNAtSuoxjo0mlUAfBRJK7GyWVg2wZIB+DdNxonnAx4TK9di3guGAI4eR/qUbs03CnAkRyAPoLAa5j0IPSsrs7DD/UZ+eeGryKmim68uOFySzScADDc0Zhv/9Rh2Baga28pvNBTqAvoeN05rzV8zmZaYg23tGw8AcjGGi+T68CBQkRfkK69pbLvGehZOXqhkHrAT0AQQJ6GcwluPAEgW6PlanyQGQQ7xLdwerBQLej5nuC9DKuJXwGISMPVDGw8AbD8hH3VKBPPgFmLwg3HVS14G/asLEQaNiM5p+Gel6qdAqhisW7Gm1GZC1r8SEXJItJLsvXb0vXwUNkDWfkI2nB/J2g7ATqXwIu9sGdHZVx+SyE9AN2rYfK5cOoM/2/VquLzMxNvboS6/II22rLvxGE6gssMVdKgm1jY+yMRqjLVqsoZz5EP4Fcoi0tvxA7EuUIWbX+6rLF6bjwPdZ4s28h6YvAg7Hq0sDQIk9YOOOu19RMpmE3B4Ave2yfHXyNd639ZThNdd+45OLHloOeU0WwlybY3enoBlkl15Ds5/NmyHn4A4VzE+nb5g4WxU1Zl2scXZgOTp3ovgx0EQ/2FY8nne8ovLhIGEsIMwIl9p8yHH2AJ6dQ/lD2WB6ojACLeKq0qi3Vt5+nltZHGFwAonGmfNgtmLAj3vF6dwt7A1rXhz0hGw++ySSNl/YK6YsaZoAs9jlaV6sTVWsB5/4Y6ZTr15KMZz2PVI+0TCrOBiWeGa0fqEHSvKIhBWPsTo+F3lhKLPlPe/ZYfZa6KM1u1BGC1x3YvY0/cXlaL3MRDNEUo4DFEonDma2DavEL4blg4TmE5sG0dDFd8+Vo+vhyaBC5Y+VJZTVqS24HdHsdb5a1deVRpCaAfBAbKbGWj+peydGVZua2k6xs5oDnPqcaeBOe9DiacGq4dAwfgwPPh2jASnnMBACJa7s68dD2cA3k/lL2jPwB6e5ltPFEVAZCF27aBMxv4CfAicMjl326EB3BYLIu33etxSJ8VMOqYSAzOngNTQ5wNTDoLTq7BFHp+lgAS8ZRkURZtvRvVxcAKCrMBt+/+iyDLcPQ1sqi3vJmvRxoo1OuPaPf1q4FFYdsROvks7HwY+quoh1OmwykzqjdeOQy8ALmUt7bRlkNyyWMNF2dST14cpSPq47C3gYjGoaNK3qsicMYFtfvwAzg5722tyP7gDKkdGjUfwI6wDagZDpa3b+UJsQoOQRNqPGuW4yNVuloVzLsWHg0qANZTzXYQMCLZdOX99q0InHtRYQOylnFsf3sAljTkS6UxBUBkR82eRVeTQxV++0dihaPH9jpYGttZf+0dWR+MIbVFYwpALttLJKo06CZnyRx8uXJ9x1pg+iWQrJMkOY4fB1EBO1JWDEC90JCbgHLBLw8BZQURNRy5YUhVKGloog1mLqyfhx/A9uEgGolmZcH6hjxabkgBOMLmsA0IlUMvVcYlt20czFxUf/kC8z6WAFa8wrnXw8MIQKNyqALT/zEnwvQFEKu3nCsKto8lgEQbNry8MfcAAEQfRJt0CyCfLZQID5ITToazu8Cqw3dGPu3vBCAidwdnTG3RuAKgiY2QHQJawzLB1ijP5KfzQu5s+nQ8w04SZ4RJV0yyTIk+w5yW1cTwuVsNcGg3gR6Dnng6nDWbIPZUc8R5OHMpL+XPIKevTo5j4dAiaTqsA5wa3cWZ8V4i+MyHmPOTSVkg2fJDfwbULg39itTu638LvKHa49oa5aHhpTyYXkpaS18rj4/s461jvkSr5dFd9ShPbYTDAS1bJ08t5B0IgCGnjf8Z+BAH7Yklt0lag8xtWcFFiZVExKMjjy8X4OQBueTRhksGepQ6nM+Vxe+rPeBh50S+O/ARVg1dU9bDD3DQnsgD6Rv9GWDnoX+fvz6OclpnYA8/wO+H3lTWww+QdtpZNXQt/93/EfpsD2XKVL0XBAWwIg97b1z7NLYAWPLbag532DmR7/d/kH157xV1t2cv8GnE7gBSdwucdWEh8WdgCE/5+N322lP4/sDt5YtAPuVz/Z/8d++Na5/GFoAZ9zwCPFeNoWyN8tOBd5Ny/J2NKxa+VmZ+vf+sCEy9uLDuDxjHZwbhQaeDn6beja1lbF3lfCQmicRy0rXmHu8d1D4NLQAiKFRnB3dT5vXst/2X0j47thXPG3iODX0+/FUiMZg+H8ZVwq9fj/xu/tiXn8KDmdeV3iDrI09hNN6wx39HaWgBKKA/rfQIOU2wOXOp737arX5e3+rD3L493tNexVoKCUYr6Nf/htaf0mb5L2z60PCl5LWEYr12xmcIcOK73hvXB417DHiUWReuo+fRlwDvC/NR2JWfMeqGX4sMMTZyYMTJfYQ8J0efY35yOUnxcQLg1fc/0Vbw66+wd1+HdYh3jb2D9ekreDl/OvYIXz8F+uwJZLT46W3aaWdXbgZTR3tBD/sQGyuaZ078/3vvoD5oeAEQ+YyjPdd/D+XjlRrj+dzZrtdnJ9ZzWdsyrEoWe3Ec6POQf7JtXCGir0oV1ZKS4vWtP3O9xybCb1M38/jw/KL3PJ8/ZxQBUMiWm4byGCLJDSLl5aOsR5pgCQCI9V9UMEHAIaf40VaLDFX+4YfC0Z9d5vf1qGtvjZVTjGBzedsyWqT4Bt5hZ5Sj+WzKXwKQWPRz3hvXD00hADLz7u2g6yrVv9t6dEJkT+Uffih/93/c5MKbP1Kbk0ALh/GR4huaeWeUItDZPu+DR1r6Zc6G+713UD80hQAAINY3KtW125tqj30qQ06lI+e0cP5fKhNOg6lzC0d+NcqQ08Zeu3iKsRbL5XjPyXn3/AOItfyn98b1RfMIwNCkHwIVSVZ/YqT4w5fXGCuGbqjEsH+kf3/p4a6Tp8LZr6XWvcBXDN0wyszKRfAyh7yHQkvMRiZ+ylvj+qNpBEC6vpFD+bdK9H1mbJvr9S3ZuezKT6/E0AVKnf6fGqxrb6XYlZ/Oluxc13uKf+bqb/c/3vob6bqvBssaVYamEQAAcvJ1IPAKlqdGd7muVwGWp95MViuw2aZ6JPrPBRE480I4OUjX3sqQ1QTLU292vWdCZA+nFCvTlznsvQKQWIrV9gFvjeuTphIAufCew0AFfLuVxUn3lHF99nhWp68JfujBg5BzSXdlWXDORTAxeNfeSrA6fQ19trsz0qLkrxjxUEcVMj7SoEXb10nXAzu9d1B/NJUAAGBZnwf8u6Mdx/T4Y5wb2+J6zyOZRbyQd/cZKJvDLs4/R117T/DvolwNXsqfySPD7tW0z45tZXr8sZEvDh/2fvQnlhJtf4e3xvVL0wmAzLz7APDlSvR9WdtPiEvx1FOK8OvUbaW5sZZKsdRfscQR114PIbQhYGuUX6duQ7X4VzImw1zeumzki37f/rG2Nc329ocmFAAAWuJ3AgeC7rbDOsSlrb9wveegPYkNmcuCGTB1eOQy3InWQuLO1rHBjFMF1mWuYL892fWeJa33MTZS5M+WOej97W9FHNR6q7fG9U1TCoCcs6wP4dOV6PvCxBpOjbq/SDam38Ce/Gn+Bxup7FeyA2bUV9beffYUNqXdEzedEn2GCxNrR77o5H2+/cd8T+Ztasp6kk0pAADMjH8dKLKY9I6gXNX2A6JSPArNIcKvUreNmB+wLPqOm/6PORFmLAyvLLgHHCL8atD9s4hInivbfoAU8+ZO7/Oe9CMST9M28F5vjeufphUAkWU2WB+gAjEC4yP7mN+y3PWevfYpPJRe6n2QdD+kjznRPOraGw1wf6EKPJhZym7b/YRiYfL+4s5W+Yy/c/9E28ekszuATKz1SdMKAIB03r0Wkf+uRN8XJx9gctTd8XBN5moO2B6Tbxw7/T+x9l17R+KQPZF16Std75kUeYm5LcVSOyqkPERAHiXWtlXmbKiIc1i90NQCAEAi9kEg8PWfhc1VbXe5BgLZGmX50J/gyS336O7/SWcXSnPXuGvvqxGWD93qeiIy6mc4dMB7wQ+J2thjr/LWuHFoegEobAjq+yrRd+Ht9YDrPc/nzuFRl7j3ERlOFZYAp3XC6ef7sDA8Hs3M59ncNNd75ra4zKLsYX8bf/G2L8iCB5713kFj0PQCACCzfv5LlIosBRYmf82EiHuO/lVD19HvjCu902iiEMcfaNbe6jHojGVV+lrXe8ZH9rEgWWQfRRUGX8bz9k20bbvM3fRJb40bCyMAR5H4/wF6g+42Inmuarur+A42MKwt/Cb1J2V0GoWO+q1V8ZuhWxjWZNHro56kpPd5n/pbsRyx1iXeGjceRgCOIJ3LBrG4FfBTR2pETok+w+yW9a737MzNoif72qCHrjl6snN4Kuu+bJndsq64L0UuVQj39YIIxDreLl1rKlA5tT6pzXQwJaAbzzuJnP0BVM9HZD+WfksW9G7w06fMvPdJ7b7uwyCBBwxdmvw5O7OdrlP93w3dxJmx7bRK4AGLNUFa2/h96k2u97RbfVyaLOJN6eSPTP09khjzA7lo3Y+8d1BAV82Yj8W7USYg8gSxyNdk3pa6LCFeb1vHaHdnnAPO7Yj+HfDKKhwqH5fFW7/gf4zrvg4SuHPI07mZLBtw32+cFd/Mte3fC3romuC+wT+lJzvH9Z6bxnyLc2MjJPtUB/qfL6T69kKsfbvM2+w7KYOunfG3KP903I/7UflHJlhfrjefgrpaAuja6ddxwO5G9PMc//ADiH5O1517ju+B0pP/Cljhu5/jODu2lVnxza739GS7Rp0i1yOFJY77w9+ZeGjkhx8K5/1eH/5ISz9j2t0HLwFd33kuymdHuNSB6Oc5YHfr2unX+R2nmtSFAOjqzlm6esZyVO5FcNv6jmDHfLjXFZCub+SIOreCPu23r+N5Q9vPRp3ij7ZJVm+UssmZtAZ5XWuRKlxD+72n+I7EcrS2XySdK/2vqxz79UBxbyvhXFTu1dUzluvqztpPvUSNC4Cu6GzXNTO/jNiPI1xeUiMhkCmYTL9vP7a+ETSgUrsFkpLi9W3u1X9KOSarJ0o55rws+dORhXH4MGQ8Bm5aEYdY6xtl9trt3jp4FaVNQYTLEftxXTPjK7qisz2gsStCzQqAbp4TI2qvBP0gpW9WDhOxAysJLhfc14tGLgMOB9UnwKz4I6NWtSnFUaYeKMXR6Zx4NzMTj7z6QnYQhjzWOhRLSXS8XS7aFFyF6Fz+90Cp549R4K+J2A/o5jk1G6BRswJAevDtQHnrNpVPy/ztLwZphpx39+NY1g2Uqv4lcnnrMhLiduIoLB+6JdjkIVWmFFfnhGS4ovXHr76QG4LUSx6z+1qQGPth6dpwl4fGRZGlO15A+Ex5jbiIoVTN5hqoXQFA3HNDHYuyA7g2iBOAES2ZefcqlBsI0Eeg3epjSevPXe85ZE8aNVimlikl2GlJ672MsY6bYOWGYPBFjw+/QEvHW4YDowAADMRJREFUx+WiDRXJ+iQLe+8Arj3ynSuxkZb+Xa4ytSsAUtIR5QAqH2cwf54s6nVPxePXnPPuXY7olYCPgnOvZHZiw6gpxUsJl61FSgl3Pi22k9mJ41w3cqkjD7+H+H4RSHR8VC7aWJEXwR+GWdT7Cwbz56HycQL8PoRB7QqA4rZT5gDfJh+ZJou3fkGu3uHRL7Q8ZNbPV6N6FeCj7tSxKFe2/oiYSx7BUhJm1BqlJDyJSo6r2n7AK/z5s4PeH37LUmLj3idzN/1L+Y3LR67eMSyLt36BfGQa8G1wCftU6+5q2OSFmv1WyaLeXyB86VUXlA1YzjxZ1PvnsrTbRzC4R7vO+/k6xFoIPBdEf2MjB1gwSvKQUlJm1RKlpDxblPwVJ1jHHLAM93mf9kvUJnbCbXLxhq+X39gfsrR7tyzq/XMsZx7KSJ6od8rire4540Ok5j0BdfWMS4FrsIiA81sWbL9f3CJrqmVXz5tORu37KHejcqS+1OJ7/bfzsn1G0XsikucdHV90LUNWCxy0J/Ht/r9x3bw8KfoCf9pxJxZHCnik90Pa41FfJJZBxi6RS9Zu8tZBcKgirJt2JViX4WCjcp9cunV12Ha5UfMCUMto9y3tMPxjEN+JJfblp/Cd/o+5TpunRJ/hbWO+gkgVqg17QBHu6v9r19oHFjZ/2nEnJ0VfABQGd0PWY0qvaPIAsfbzTXCPd2p2CVAPSOeyQfb2XwfyX377mhh9iXlJ9yPrUgpnhMkjmcWjFj6Z1/K7wsOvCgMv+nn4X6JFzzUPvz+MAPhElq7MM+uedwP/7Lev+S2/4cSI+/d5VfoaDju1V+yj3zmB1ek3ut4zPrKXS5K/LWzyDTzvvYR3rL2beWPPkAsfC9RBqxkxAhAAIqh03vsx4A4//RSSh/zAdYqf0wT3p95Mra3e7h+l+OkfknxoBvqfg7xHl4p42+Myb/N5Iis9VgExHIsRgCCZde8nAV+xvFOiz/LaxBrXe57NTWPL8EV+hgmULdm57MrNcL1nTsuqQpKP1Eves/lEW/bSnnGvG24oCyMAASKCkj7pXYCveIRLW3/BOMt9V/z3QzeS0jF+hgmEtNPOiqEbXO/psA4VKvqm9hS8/LwQTaRwWs+vt3j7WscIQMBI1zdy2Plb8OEnECPLlW0/xC3pZUZb+V3qJq9DBMZvhm5myHEvQ3Zl2w+JD+8unPV7wYo4SMt8WbDeY2SQoRhGACqAXPDLQ8DbcPMOG4UzYts5P/GQ6z292QvZnr3A6xC+2ZnrpDd7oes95yc2cZb1RCGRp1diHXfKvE1PeO/AUAwjABVCOu9dg/AVP328rvVu2iz3Y7LfDt3suvlWKbKa4P5Rkny0Wf28Lnl3IY+fp8AeINbWK3M3fMxbY8NoGAGoJMm+TwLu0T4utMgQl7WOnjwkjIjBtemrGHTcy49f1voTWoZ95PGzonnaxi3x1thQCkYAKoictTKD8Ak/fUyPP8a0uPvsd3NmCQftSX6GKYsD9kk8nLnU9Z5p8SeYHn3YewpvgHjbf8r5v6/LbLv1ghGACiOz7r0bWOenj8tbl9EixXfPHayqzgLWpa9ydVlOWBne0PpTv2W7M3Ql/8qjiYYSMQJQHXzNAtqsfha3uqc72Jq70Hul4TLYb59Mb3a26z1LkvcyRvfAsI9Q+WjrPxpnn8pjBKAKSOe9awB3755RmB3f4OomrGqxObPEzxAl8VBmCerihTghsocLEpsgfRDPtfuseFrmbhwp/bYhYIwAVA39hp/WIg6XjjIL6B7uIqOtfoZxZViTbB3l2G9p6z1YzjDk/Lz9k8u8NzaUgxGAahHPLfObYvzc2BZOjxZPRZcjPuoD6oee4TnkXI4cz4ht55xYT8Hhx+uxn2Up+Yg59qsSRgCqhEz99TBYvmt+XZR0L1i0bZT1uR+25tyLl85teaDwn6yPjGnR5BPG4696GAGoJuLc67eLs2NbXZ2Dnsufy5AGX4sipWN4IX9W0evtVh9nRbdBfhjsImW9S0Hi3/fe2FAuRgCqyZ7+9fhMKGph0+lSX1DV4tls8AVFns1NR7X41+W8+EOFMOacjwpcIuA4vvZKDOVhBKCKyNKVeUR8Vy46L+4eI/BsfqrfIV7dZ869z86jcQteo/0AosndMm+TxxRBBi8YAag26vguVTUx+pLrMuBFl6m6V17MuU//T4zsLjj95H0IgBWt6QSajYgRgGrjSCBRbVOizxa9dtCeFGhJsbzGOKgTi9sSeabwH9tvqH50lc8ODGViBKDa5KUniG6mRJ8pes0hEqhX4H57suv6/w9ilPdZn8UapUCCIXCMAFQZufCew8BLfvtxmwEA9Dnj/Q5Rcl9/ECPHhwBIzJauB3Z678DgBSMA4eA5RPgor6iqMwIDzji/Q5TcV4d1JOLPzxIgEjGbfyFgBCAMRHzEyBZoswZcswcHmS8w5bj39YdIRa+RfwDiEu5oqBhGAMJA1ffbzsImLsXfuHmN+x3ij31RfEPRwiZhHZn6q+1jFMsIQAgYAQiHQKa7MYoLQC5IAXDpq8XK8IeoP6/+/wCKDw8ig1eMAIRDIDXlLZeco0GWE3ct880xbr9+ZgBiZgBhYAQgDMTPYrmGEV/VihrzM6lxjAAYDE2MEQCDoYkxAmAwNDFGAAyGJsYIgMHQxBgBMBiaGCMABkMTYwTAYGhifHluGLzxyLa7f7lfpl7tt599+SnYREa8lpQUYyMH/Q4BQJ89nrS2jXgtgs3EaCG6efvBFhyP3sBnRbfuu/aia6tX4NAAQDRsA5qRNOPGHBL/abuiseJ/QIexHMK9em/pA0HxagBRDlH4XYbs/TgeFSAVHR9c8IKhZMwSwGBoYowAGAxNjBEAg6GJMQIQAocjp3eHbUOtMajjXwzbhmbECEAIDDLZV5HQRmSIsQfCtqEZMQJgMDQxRgAMhibGCIDB0MQYATAYmhjjCRgC23Y9v/hAXyPWwfCeFXhs+5jTAzTEUCJGAMLBUj8ptBsRUROXEgJmCWAwNDFGAAyGJsYIgMHQxBgBMBiaGCMABkMTY04BQqBjTPuzLYn4orDtCJq+VBqvR4EtLS19wVpjKAUjACFw8okn7PJxZF6zPLvXe0ag1kT8cMDmGErALAEMhibGCIDB0MQYATAYmhgjAAZDE2MEwGBoYowAGAxNjDkGDIGX9x86K5vNhm1G4PjxA3Cc5LhgrTGUghGAEOgfGDxj/2Hj93IsEUsCKmNkKAezBDAYmhgjAAZDE2MEwGBoYowAGAxNjBEAg6GJMacAoaCOSCPmwPQR4qiNGB9Z+xgBCIHpZ5zxM0QvDduOIFFVntmz33P7jrbkgwGaYygRswQIARVeDtuGoMk7jr8ObJ4JxBBDWRgBCAO1t4RtQtDk87av9pZlPxCQKYYyMAIQAm+eNmYr6Paw7QiS1PCw57bRiOTeN2fK/QGaYygRIwAhoSrLwrYhKFSVoYz32IZ4NLYxQHMMZWAEICTsRO5fgINh2xEE/UMZbI97ABFLNGFF3hmwSYYSMQIQEm89Y9whkM+GbYdfbMfhcCrluX1rLH73X3SdtDNAkwxl0IiH0XWDqsqPn0rdhcibw7bFG8rLB/vJeAxtbonHXvzg3Cmni4jPIwSDV8wMIERERFvb294FUnc74KrK3r5Bzw9/IhY72N7efoF5+MPFCEDIXDtFhg73Ja9U+PewbSkV23HYfaiPVDrjqX1rIvHkuPSUU97dObYh9kDqGbMEqCF+sGNovqX6BWBB2LaMhKIMDA1zeDDladMvHo2kksnY3//l7MlfqoB5Bg8YAagxVFV+vDM9H7hOVC9TOA04MRRbUGzbIZe3SQ0PM5TJlvXgRyIRxxKG47HoE5ZY337/ayd900z5awsjAHXAr57SxKF4X2up9z/Z8+yV2UzuLr/jHhuwlGhNvOfkk078faltT0jHDrxt3oR+vzYYKosJBqoDrp4qw0DJrnYf+MmDg6LBBtdl++09n7t88q5AOzWEjtkENBiaGCMABkMTYwSgAbE04Pl/hfo0hI8RgAbEsdR7Zo5iiLMv8D4NoWMEoAGx7OhLQfcZyUUC79MQPkYAGpCv3Nr1HPB0YB0KO++8be7zgfVnqBmMADQoit4dVF8CPwuqL0NtYQSgQdF8/k7Ae5zuH0mJRIzrboNiBKBB+dptC18S+JzffhT+4cs3dTVcElNDAeMK3Mioygd+uukHovInXpoL+rOv3HzxzYiYI8AGxcwAGhkRpXXCn4F8u/y23GWp8zbz8Dc2ZgbQJPz1Tzb9GcpngVPd7lPheXH07/711nnfq5JphhAxAtBEfOjH65O2WNercIMorwE5Igb6AliPiXJPXyp173feudRbpg9D3fG/b2ho8ZJVVCMAAAAASUVORK5CYII=;" vertex="1" parent="1">
                    <mxGeometry x="510" y="420" width="180" height="180" as="geometry"/>
                </mxCell>
                <mxCell id="97" value="" style="endArrow=none;html=1;strokeWidth=10;exitX=0.5;exitY=1;exitDx=0;exitDy=0;entryX=0.611;entryY=0.833;entryDx=0;entryDy=0;entryPerimeter=0;edgeStyle=orthogonalEdgeStyle;strokeColor=#a0522d;" edge="1" parent="1" source="93" target="96">
                    <mxGeometry width="50" height="50" relative="1" as="geometry">
                        <mxPoint x="429.99999999999955" y="750" as="sourcePoint"/>
                        <mxPoint x="429.99999999999955" y="716" as="targetPoint"/>
                        <Array as="points">
                            <mxPoint x="420" y="1006"/>
                            <mxPoint x="670" y="1006"/>
                            <mxPoint x="670" y="570"/>
                        </Array>
                    </mxGeometry>
                </mxCell>
                <mxCell id="99" value="1.5 V" style="text;html=1;strokeColor=none;fillColor=none;align=center;verticalAlign=middle;whiteSpace=wrap;rounded=0;fontSize=24;fontStyle=1;fontColor=#136E48;" vertex="1" parent="1">
                    <mxGeometry x="390" y="530" width="60" height="30" as="geometry"/>
                </mxCell>
                <mxCell id="100" value="3.7 V" style="text;html=1;strokeColor=none;fillColor=none;align=center;verticalAlign=middle;whiteSpace=wrap;rounded=0;fontSize=24;fontStyle=1;fontColor=#136E48;" vertex="1" parent="1">
                    <mxGeometry x="390" y="820" width="60" height="30" as="geometry"/>
                </mxCell>
                <mxCell id="101" value="2 A" style="text;html=1;strokeColor=none;fillColor=none;align=center;verticalAlign=middle;whiteSpace=wrap;rounded=0;fontSize=21;fontStyle=1;fontColor=#83f29b;" vertex="1" parent="1">
                    <mxGeometry x="381" y="867" width="60" height="30" as="geometry"/>
                </mxCell>
                <mxCell id="102" value="Seri" style="rounded=1;whiteSpace=wrap;html=1;fontSize=30;fontStyle=1;strokeWidth=3;fillColor=#a0522d;strokeColor=none;fontColor=#ffffff;" vertex="1" parent="1">
                    <mxGeometry x="980" y="320" width="127.5" height="70" as="geometry"/>
                </mxCell>
                <mxCell id="105" value="" style="rounded=1;whiteSpace=wrap;html=1;strokeWidth=4;arcSize=2;fillColor=#e1d5e7;strokeColor=#9673a6;" vertex="1" parent="1">
                    <mxGeometry x="1264" y="291" width="840" height="800" as="geometry"/>
                </mxCell>
                <mxCell id="106" value="Paralel" style="rounded=1;whiteSpace=wrap;html=1;fontSize=30;fontStyle=1;strokeWidth=3;fillColor=#76608a;strokeColor=none;fontColor=#ffffff;" vertex="1" parent="1">
                    <mxGeometry x="1930" y="320" width="147.5" height="70" as="geometry"/>
                </mxCell>
                <mxCell id="107" value="1 A" style="text;html=1;strokeColor=none;fillColor=none;align=center;verticalAlign=middle;whiteSpace=wrap;rounded=0;fontSize=21;fontStyle=1;fontColor=#83F29B;" vertex="1" parent="1">
                    <mxGeometry x="380" y="577" width="60" height="30" as="geometry"/>
                </mxCell>
                <mxCell id="112" value="" style="shape=image;verticalLabelPosition=bottom;labelBackgroundColor=default;verticalAlign=top;aspect=fixed;imageAspect=0;image=data:image/png,iVBORw0KGgoAAAANSUhEUgAAAQAAAAEACAYAAABccqhmAAAABHNCSVQICAgIfAhkiAAAAAlwSFlzAAAHYgAAB2IBOHqZ2wAAABl0RVh0U29mdHdhcmUAd3d3Lmlua3NjYXBlLm9yZ5vuPBoAACAASURBVHic7Z13lFxnef8/z522s7tayZIly3IvqmsbGa1lWc0S4IorLsGUBEIJ4ReCaSEQwo/fCSEGEgOB/BJKAgRiigDbmGJRrN5suWtXK1my3K0ubZmd2Zm598kfI4Es79yduffO3Cnv5xydo7P3vu/77Ozc733LUwRD06HrzpmEHbsT4TpAEfk5Tu7DsnjHvrBtM1QXCdsAQ3XRtdPHoPIYcPYrr8hO8tZsWdo9GIphhlCwwjbAUG3ko7zq4QfQc4jaH6m6OYZQMQLQbChzi1+Ui6tniKEWMALQbAjx4tc0UUVLDDWAEQCDoYkxAmAwNDFGAAyGJsYIgMHQxBgBMBiaGCMABkMTYwSg2VBsT9cMDYkRgOZje9ErQm8V7TDUANGwDag3dO2sTlTfA9oBdBPLf1Pm7egP266SseSLOPp2oOO4K/0Q+ecwTPKKbjy3g3z0vSizUO3DinxLFvZ0h21XPWGCgcpA106/FZXvA7FjfvwysEQW9RZ/s9YYumrGfCy+A0w98qPtWLxDFvRuCNGsstC106ejshKYfMyPs6i+VRZv+0lIZtUdRgBKRJdf0EZrdhcwcYTLG1nYO18ErbZdXlHFYt2smTiiLOruFcEJ26ZSUUVYO2M9MG+Ey3tJtp0lXQ8PVduuesQsAUqlPbsAZ8SHH2Aea2e+DbZ+r6o2+aDwwNfpdHntzLeBjvTwA0wiPTQf+F01TapXzCZgqdjS6n6D3qErOturY0zzUviM9Q7Xm8QZ5W9lOIoRgFKxrY3AsMsdU4g6f1stc5qWwmc8xeWOYSS/sVrm1DtGAEpElnbvBr7mfpd+VNd3nlsVg5oQXTX9LFD3pCXKV2XBzr1VMqnuMQJQDqL/D9jtckcC2/6napnTdETki0CLyx17Gc5+tlrmNAJGAMpAFm4bQPn0KLfdrGtmLKmGPc2ErpmxBOUm95v4lFz2dF+VTGoIjACUy+7e/wJ9zPUe5RNVsqaZ+KT7ZX2s8LcxlIMRgDKRW7FRud39JmZXyZxm4kLXqyq3y60mlqFcjB+AB2Rx7ypdM3MZ6C1F7jhQXYteifZeNwbbOgfhTDR7NunUa3CyU7GHTwHiYMdRiYJGEWwgV2hp5RBJITKAWv1Y8hxq7SAeewzJPySzN7wY4q91ADhx5EuyTBZvXVVVaxoEIwBeyevfEOUq4NVn/8p3qmGCrlgSZVLH+SCzKbwhZwPTsZkESsEvMQbJcUcaKDjDYGchP1z452TAGeXFmT3SfN35Nlb0MBHrWYg8gsjddG26vypehMJ3UEbaYB0kr39T8fEbFOMK7ANdO/06VP6HY0VA+TmD+Vvl6h1uPgPexluxJMpJHfNRWQKyEPQSRhKg8noFOwf5NOSGIJcCLWMmLZYSSRzAij8I1veZu+FHlRAEXXFmC9GWHwPXHvPjQeAtsqj3vqDHaxaMAPhEV3ROJmZfj8o4VDeyqHd1kDEB2n3LeCT3RtS5BuRyYFxQfRcZEexhyA5CdqAwWygHK+IQSTyDlfgxbXxROjccDMyyQgzApSAXI3qYaPQembdlT1D9NyNGAGoQffzyNqLJ64E3A1eASy7/SmNnIdtf+GfnymsrApHWF4jEvkOq5R9l6cpMRWw0eMYIQA2h3TfMBn0f8BZgTNj2vIpcGrKHCzMDLXOSY0UcYq2bsWJ/L13rf1MZAw3lYgQgZFRvibA1ezPK7Ywc3lp7aB4yfTB8GJx8mY0Foom9xFruZM7GL9ZTGHIjYgQgJHTzta0k5c+BD4GMUKyzDlAtLA3SB8Epc68AwIplSLR/nTmJj4qsLFdJDAFgBKDKaPctcTT7HoS/A04O257AGO6HzP7y9wkAIvFhIq3fZG7Lh4wQVBcjAFVCFaHnureA/ANwVtj2VAaFzGHIHPSwNACiiSGiyU/JRRu/FLxthpEwAlAF9MnrurDkX4FLwralKqgD6f2QOeStfTS5h1j8NunatCJYwwzHYwSgguijN4wjoV9AeRfNGHdhD0NqT8HJqGwsiLX9jjFtN0rnysHAbTMARgAqhm65/lqE/8A9e00TcGRZkN5X/tEhFPYHEu0fkDnrvxm8bQYjAAGjO28ZS2b4ayBvC9uWmsLOQWo35L0k6xWIt6+nve0KMxsIFiMAAaJbb7wEx/kfGnaTzyeqhQ3CzAGvs4E0seTNctGmXwVvXHPSfOvSCqCKaPf1n8RxVmMe/uKIQHICjDkNJFJ+ezubZHjgF7pp3leDN645MTMAnxRi7+W7wI1h21JXOHkYfKEQkuyFeNsWIlMulq77TAEQHxgB8IH2XDMVjdwLzAzblrpEtbAvkPVYWjHa0kdr9GJ5zeZtwRrWPJglgEf0yevno5H1mIffOyLQfjIkiyT6GY18ZiyDw0/q5vlvDNaw5sEIgAe05/obsfgdRVNUGcoiOQHapxQEoVycXIzM4fv0oUv+InjDGh8jAGWiPTe8C+UnQDJsWxqK+BhoPwXEw1dSHSFz+D9087xPBW9YY2P2AMpAe65/P8rXMJ9b5cgNweCLBXfishFIdPyLzN300cDtalDMDKBEtOeG283DXwVirdB+qreZAArD/R/RTXPvDNyuBsUIQAnoluveg+qdmIe/OsSS3pcDKGQHPqQPXmJKtJWA+UKPgm654SZEfwR48Fwx+CI/BP0vgJccqyLQMu5j0rXhnwO3q4GoeQHQzXNiDA2djyVttCQflq6Hq+b4oT3XXYbKL4FYtcY0HMfwAKRe8tZWLCV+wm0yd92PgjWqOLr8gjZacnMQBmltfVK6HvaQIaV61LQA6NppV6HWv/FH99qDwOcYH/mqdHZ7yEFVxtg9N56HOmuBsZUcx1AC6f2Q9lhsyYo4tIxbIHPWbQzWqFei3Z1xDtofoFDDcPyRH+8Cfb8s2nZ/Jcf2Q80KgK6dPh2Vxxi5HPR2VD4si7f+siJjd189GWIbgTMq0b/BA4Mve/cYjCTSaNuZsmD93mCNKqCrZ74R0TuBaSNcTgOzZVHv9kqM7Zfa3QR0eB/Fa8FPQ/QXumbGr3X9tBlBDqsrlkQh9iPMw19btE2GqEfXC3s4iZV+VDXY77uunzZD18z4NaK/YOSHHwr+Iu8NctwgqV0BQCaWcNOV2NaTumbG13XFtGC88iZ2fBFYHEhfhuAQgTFTwPJYzjKfnsKDXb8OwhRdMXucrpl+B7b1OHDl6A1q12O0dgVA2FHinVHgvUStLbpuhq+ce9p9w63IKKW/DeEhUWjzkUg5O3i5Pjj//X5M0NXTFxDN9IJ8nNIrNj3tZ8xKUrt7ABvPO4lcfjvQUUazFxnIn+OlMKc+/qZTidpPACeU29ZQZYb2ek84asVs2sbOktlry16THylQ+jTlpHMX+pDcNFmwsyL7D36p2RlAoeijdTnIzjKanUJHtOzIMNXPWMTs72Ee/vogOREiCW9tnVyEdMpbtuFI4hrKquUgOxHnslp9+KGGBQBAFvVsYiDXifAJCqWgS0AnlT1Qz6MfRllSdjtDOIgciR70+PXNp6foQxd/rfxxrZNKvHMQ4RMM5DplwfaHyh6nitS0AADI1TuGZWHvHahMQ/kuo7mF2VZPOf1r77VnAZ/xbqEhFCJx73kEAIYH3q+PXXJheY20e7QbUL6LyjRZ2HuHl6Votal5ATiKLN76sizufQfqzAOKOXXcz+Kta0rtUxXBtr4JtAVipKG6tIyDaLGT4lFQR8hk7iurzcLeVcDyIlc3os48Wdz7Dlm89WVvRlWfuhGAo8ji7Q+ysHc+qm9HePLIjwcQvkqy7SaRMhzHe274M+D1FTG0WRgegi0PQGYghMEFWifjeS87lz5FN88vOYeACMpQ/Cbg34CBIyY8ierbWdg7XxZvf9CbIeFRs6cApaLrT03K/BfKLj1zJJnnNhqpQGe1SQ/Atg2FBJ8XXul9Te4XP6cCkViOeHyidD3cV25Tr9+9WqLuZgDH4/kPYFufwDz83kkdgt61kEvDCZPDe/ihsBfgJc04gJ2LYUc8BQvV+8MPDSAAXtCtN5wJ+qGw7ahb+vdB73rIH4nHOiHk6mdiFfIKeiU/eLk+unhqcAbVD00pADj6fykeZ2Bw48ALsH3jH8t/WxHoKMVru8K0jAOrVMe843AcITt0V7AG1QdNJwDac81UwNTt88LeXbDrkVfm6xs3uSACoSOQHD/6bcXIprp0w8KLg7OnPmg6AUCtT1OIHzCUw+6n4NknXl3T74Qa2kaJd0DEa+4WBRn+j0DtqQOaSgAKa3+5LWw76gpVeOZxeH4E/yrLgrGlOsdVARFo8bEXkBucrRsvnhWcQbVPUwkADrdjcvuVjjrw9MOw75mRr3dMgkiNTabiHd5PBFDA+VaQ5tQ6TSMA+tRVHaDvDNuOusGxYfsmOPhi8XvC3v0fCRFo8RHTlU/N081LajZ+P2iaRgDIxt5NeaHFzUs+C9vWQb9LEJtYMK6Gpv/HkhjrrcwYFFyE7fTngzWodmkeAUDeFbYFdcHwEPSugcFRPOvGnAhRj8dulcaKQmyM9/Z2umn2iZpCALT7xoVAU23ueCIzUPDuS5cQeT2+hnb/RyLhI5mznU3qg/Ob4qi4KQQAHPP2H43UYdi6FrIleLeKwLgaF4BYq3fHIAAn95HgjKldGl4AdNeSFuBNYdtR0/TvK6z58yWWWmifADGPGXmqScLPMmDoAl2xpOG9RRteABgacwVm8684B4+49tr50tvUkvOPG372ARzbYkz6Y8EZU5s0vgBg3Rq2BTXL3l3w9HGuvaVQLwIQTRQyB3kln39LcMbUJg0tALr5vTHgmrDtqEmKufaORvsJEPdYoCMMYu3e29qZaapLaszTKVgaWgBI7F2Amf6/mue3jOzaWwrjatD5x424DwFwbIuHM+8IzJYapLEFwNIrwjahplAHdm6G3eVkWj+OWj/+O55o0l+yEtt+e3DG1B6NLQCllG1qFhwbnhrFtXc0WsdCog7zp8Z82OxkXxOcIbVHwwqAPnrDOOCCsO2oCfJZ2LYe+nzWp6hF3/9S8FpUFCCfHavr5pdfa6JOaFgBIKYX08i/X6lkM4Uz/sGD/vuqt+n/UaKtPhorJJyGDSJr3AfE0gVhmxA6mUHYuhqG+v33lWyHFh/n6mESifvdB7gsOGNqi8YVAKTp0ju9gqHDBb/+Ulx7S6Fep/9QcF2O+vBc1HzDxpE0rgAoDb1540r/fuhdB7kAK1PVswAARHx49dp5swdQT+jjN04CajRYvcIcehme2lCea+9oJFoLJwD1jNdqwgBOLqKPLZwWnDG1Q0MKADGnOXf/9+6CnQ+BU6Zr72jU+9sf/LkEA+TzrwvGkNqiMQXAYXrYJlQdr669pdAQAuAzetHWi4IxpLZoTD9n4YywTagqz22BPT68+9yItxT8/+sdsQrJQtX22IHTkBuBjSkAyJmUUSS4blGnUKjjgA/vvtFohLf/USJxyHs8FVHnlGCNqQ0aVAC08WcAjg07HoK+PZUdp15Cf0vBTwUjx67zXdCRaVABYHLYBlQUO1dI4hGEd58b0TiM8VFoo9awvFYNAtSuoxjo0mlUAfBRJK7GyWVg2wZIB+DdNxonnAx4TK9di3guGAI4eR/qUbs03CnAkRyAPoLAa5j0IPSsrs7DD/UZ+eeGryKmim68uOFySzScADDc0Zhv/9Rh2Baga28pvNBTqAvoeN05rzV8zmZaYg23tGw8AcjGGi+T68CBQkRfkK69pbLvGehZOXqhkHrAT0AQQJ6GcwluPAEgW6PlanyQGQQ7xLdwerBQLej5nuC9DKuJXwGISMPVDGw8AbD8hH3VKBPPgFmLwg3HVS14G/asLEQaNiM5p+Gel6qdAqhisW7Gm1GZC1r8SEXJItJLsvXb0vXwUNkDWfkI2nB/J2g7ATqXwIu9sGdHZVx+SyE9AN2rYfK5cOoM/2/VquLzMxNvboS6/II22rLvxGE6gssMVdKgm1jY+yMRqjLVqsoZz5EP4Fcoi0tvxA7EuUIWbX+6rLF6bjwPdZ4s28h6YvAg7Hq0sDQIk9YOOOu19RMpmE3B4Ave2yfHXyNd639ZThNdd+45OLHloOeU0WwlybY3enoBlkl15Ds5/NmyHn4A4VzE+nb5g4WxU1Zl2scXZgOTp3ovgx0EQ/2FY8nne8ovLhIGEsIMwIl9p8yHH2AJ6dQ/lD2WB6ojACLeKq0qi3Vt5+nltZHGFwAonGmfNgtmLAj3vF6dwt7A1rXhz0hGw++ySSNl/YK6YsaZoAs9jlaV6sTVWsB5/4Y6ZTr15KMZz2PVI+0TCrOBiWeGa0fqEHSvKIhBWPsTo+F3lhKLPlPe/ZYfZa6KM1u1BGC1x3YvY0/cXlaL3MRDNEUo4DFEonDma2DavEL4blg4TmE5sG0dDFd8+Vo+vhyaBC5Y+VJZTVqS24HdHsdb5a1deVRpCaAfBAbKbGWj+peydGVZua2k6xs5oDnPqcaeBOe9DiacGq4dAwfgwPPh2jASnnMBACJa7s68dD2cA3k/lL2jPwB6e5ltPFEVAZCF27aBMxv4CfAicMjl326EB3BYLIu33etxSJ8VMOqYSAzOngNTQ5wNTDoLTq7BFHp+lgAS8ZRkURZtvRvVxcAKCrMBt+/+iyDLcPQ1sqi3vJmvRxoo1OuPaPf1q4FFYdsROvks7HwY+quoh1OmwykzqjdeOQy8ALmUt7bRlkNyyWMNF2dST14cpSPq47C3gYjGoaNK3qsicMYFtfvwAzg5722tyP7gDKkdGjUfwI6wDagZDpa3b+UJsQoOQRNqPGuW4yNVuloVzLsWHg0qANZTzXYQMCLZdOX99q0InHtRYQOylnFsf3sAljTkS6UxBUBkR82eRVeTQxV++0dihaPH9jpYGttZf+0dWR+MIbVFYwpALttLJKo06CZnyRx8uXJ9x1pg+iWQrJMkOY4fB1EBO1JWDEC90JCbgHLBLw8BZQURNRy5YUhVKGloog1mLqyfhx/A9uEgGolmZcH6hjxabkgBOMLmsA0IlUMvVcYlt20czFxUf/kC8z6WAFa8wrnXw8MIQKNyqALT/zEnwvQFEKu3nCsKto8lgEQbNry8MfcAAEQfRJt0CyCfLZQID5ITToazu8Cqw3dGPu3vBCAidwdnTG3RuAKgiY2QHQJawzLB1ijP5KfzQu5s+nQ8w04SZ4RJV0yyTIk+w5yW1cTwuVsNcGg3gR6Dnng6nDWbIPZUc8R5OHMpL+XPIKevTo5j4dAiaTqsA5wa3cWZ8V4i+MyHmPOTSVkg2fJDfwbULg39itTu638LvKHa49oa5aHhpTyYXkpaS18rj4/s461jvkSr5dFd9ShPbYTDAS1bJ08t5B0IgCGnjf8Z+BAH7Yklt0lag8xtWcFFiZVExKMjjy8X4OQBueTRhksGepQ6nM+Vxe+rPeBh50S+O/ARVg1dU9bDD3DQnsgD6Rv9GWDnoX+fvz6OclpnYA8/wO+H3lTWww+QdtpZNXQt/93/EfpsD2XKVL0XBAWwIg97b1z7NLYAWPLbag532DmR7/d/kH157xV1t2cv8GnE7gBSdwucdWEh8WdgCE/5+N322lP4/sDt5YtAPuVz/Z/8d++Na5/GFoAZ9zwCPFeNoWyN8tOBd5Ny/J2NKxa+VmZ+vf+sCEy9uLDuDxjHZwbhQaeDn6beja1lbF3lfCQmicRy0rXmHu8d1D4NLQAiKFRnB3dT5vXst/2X0j47thXPG3iODX0+/FUiMZg+H8ZVwq9fj/xu/tiXn8KDmdeV3iDrI09hNN6wx39HaWgBKKA/rfQIOU2wOXOp737arX5e3+rD3L493tNexVoKCUYr6Nf/htaf0mb5L2z60PCl5LWEYr12xmcIcOK73hvXB417DHiUWReuo+fRlwDvC/NR2JWfMeqGX4sMMTZyYMTJfYQ8J0efY35yOUnxcQLg1fc/0Vbw66+wd1+HdYh3jb2D9ekreDl/OvYIXz8F+uwJZLT46W3aaWdXbgZTR3tBD/sQGyuaZ078/3vvoD5oeAEQ+YyjPdd/D+XjlRrj+dzZrtdnJ9ZzWdsyrEoWe3Ec6POQf7JtXCGir0oV1ZKS4vWtP3O9xybCb1M38/jw/KL3PJ8/ZxQBUMiWm4byGCLJDSLl5aOsR5pgCQCI9V9UMEHAIaf40VaLDFX+4YfC0Z9d5vf1qGtvjZVTjGBzedsyWqT4Bt5hZ5Sj+WzKXwKQWPRz3hvXD00hADLz7u2g6yrVv9t6dEJkT+Uffih/93/c5MKbP1Kbk0ALh/GR4huaeWeUItDZPu+DR1r6Zc6G+713UD80hQAAINY3KtW125tqj30qQ06lI+e0cP5fKhNOg6lzC0d+NcqQ08Zeu3iKsRbL5XjPyXn3/AOItfyn98b1RfMIwNCkHwIVSVZ/YqT4w5fXGCuGbqjEsH+kf3/p4a6Tp8LZr6XWvcBXDN0wyszKRfAyh7yHQkvMRiZ+ylvj+qNpBEC6vpFD+bdK9H1mbJvr9S3ZuezKT6/E0AVKnf6fGqxrb6XYlZ/Oluxc13uKf+bqb/c/3vob6bqvBssaVYamEQAAcvJ1IPAKlqdGd7muVwGWp95MViuw2aZ6JPrPBRE480I4OUjX3sqQ1QTLU292vWdCZA+nFCvTlznsvQKQWIrV9gFvjeuTphIAufCew0AFfLuVxUn3lHF99nhWp68JfujBg5BzSXdlWXDORTAxeNfeSrA6fQ19trsz0qLkrxjxUEcVMj7SoEXb10nXAzu9d1B/NJUAAGBZnwf8u6Mdx/T4Y5wb2+J6zyOZRbyQd/cZKJvDLs4/R117T/DvolwNXsqfySPD7tW0z45tZXr8sZEvDh/2fvQnlhJtf4e3xvVL0wmAzLz7APDlSvR9WdtPiEvx1FOK8OvUbaW5sZZKsdRfscQR114PIbQhYGuUX6duQ7X4VzImw1zeumzki37f/rG2Nc329ocmFAAAWuJ3AgeC7rbDOsSlrb9wveegPYkNmcuCGTB1eOQy3InWQuLO1rHBjFMF1mWuYL892fWeJa33MTZS5M+WOej97W9FHNR6q7fG9U1TCoCcs6wP4dOV6PvCxBpOjbq/SDam38Ce/Gn+Bxup7FeyA2bUV9beffYUNqXdEzedEn2GCxNrR77o5H2+/cd8T+Ztasp6kk0pAADMjH8dKLKY9I6gXNX2A6JSPArNIcKvUreNmB+wLPqOm/6PORFmLAyvLLgHHCL8atD9s4hInivbfoAU8+ZO7/Oe9CMST9M28F5vjeufphUAkWU2WB+gAjEC4yP7mN+y3PWevfYpPJRe6n2QdD+kjznRPOraGw1wf6EKPJhZym7b/YRiYfL+4s5W+Yy/c/9E28ekszuATKz1SdMKAIB03r0Wkf+uRN8XJx9gctTd8XBN5moO2B6Tbxw7/T+x9l17R+KQPZF16Std75kUeYm5LcVSOyqkPERAHiXWtlXmbKiIc1i90NQCAEAi9kEg8PWfhc1VbXe5BgLZGmX50J/gyS336O7/SWcXSnPXuGvvqxGWD93qeiIy6mc4dMB7wQ+J2thjr/LWuHFoegEobAjq+yrRd+Ht9YDrPc/nzuFRl7j3ERlOFZYAp3XC6ef7sDA8Hs3M59ncNNd75ra4zKLsYX8bf/G2L8iCB5713kFj0PQCACCzfv5LlIosBRYmf82EiHuO/lVD19HvjCu902iiEMcfaNbe6jHojGVV+lrXe8ZH9rEgWWQfRRUGX8bz9k20bbvM3fRJb40bCyMAR5H4/wF6g+42Inmuarur+A42MKwt/Cb1J2V0GoWO+q1V8ZuhWxjWZNHro56kpPd5n/pbsRyx1iXeGjceRgCOIJ3LBrG4FfBTR2pETok+w+yW9a737MzNoif72qCHrjl6snN4Kuu+bJndsq64L0UuVQj39YIIxDreLl1rKlA5tT6pzXQwJaAbzzuJnP0BVM9HZD+WfksW9G7w06fMvPdJ7b7uwyCBBwxdmvw5O7OdrlP93w3dxJmx7bRK4AGLNUFa2/h96k2u97RbfVyaLOJN6eSPTP09khjzA7lo3Y+8d1BAV82Yj8W7USYg8gSxyNdk3pa6LCFeb1vHaHdnnAPO7Yj+HfDKKhwqH5fFW7/gf4zrvg4SuHPI07mZLBtw32+cFd/Mte3fC3romuC+wT+lJzvH9Z6bxnyLc2MjJPtUB/qfL6T69kKsfbvM2+w7KYOunfG3KP903I/7UflHJlhfrjefgrpaAuja6ddxwO5G9PMc//ADiH5O1517ju+B0pP/Cljhu5/jODu2lVnxza739GS7Rp0i1yOFJY77w9+ZeGjkhx8K5/1eH/5ISz9j2t0HLwFd33kuymdHuNSB6Oc5YHfr2unX+R2nmtSFAOjqzlm6esZyVO5FcNv6jmDHfLjXFZCub+SIOreCPu23r+N5Q9vPRp3ij7ZJVm+UssmZtAZ5XWuRKlxD+72n+I7EcrS2XySdK/2vqxz79UBxbyvhXFTu1dUzluvqztpPvUSNC4Cu6GzXNTO/jNiPI1xeUiMhkCmYTL9vP7a+ETSgUrsFkpLi9W3u1X9KOSarJ0o55rws+dORhXH4MGQ8Bm5aEYdY6xtl9trt3jp4FaVNQYTLEftxXTPjK7qisz2gsStCzQqAbp4TI2qvBP0gpW9WDhOxAysJLhfc14tGLgMOB9UnwKz4I6NWtSnFUaYeKMXR6Zx4NzMTj7z6QnYQhjzWOhRLSXS8XS7aFFyF6Fz+90Cp549R4K+J2A/o5jk1G6BRswJAevDtQHnrNpVPy/ztLwZphpx39+NY1g2Uqv4lcnnrMhLiduIoLB+6JdjkIVWmFFfnhGS4ovXHr76QG4LUSx6z+1qQGPth6dpwl4fGRZGlO15A+Ex5jbiIoVTN5hqoXQFA3HNDHYuyA7g2iBOAES2ZefcqlBsI0Eeg3epjSevPXe85ZE8aNVimlikl2GlJ672MsY6bYOWGYPBFjw+/QEvHW4YDowAADMRJREFUx+WiDRXJ+iQLe+8Arj3ynSuxkZb+Xa4ytSsAUtIR5QAqH2cwf54s6nVPxePXnPPuXY7olYCPgnOvZHZiw6gpxUsJl61FSgl3Pi22k9mJ41w3cqkjD7+H+H4RSHR8VC7aWJEXwR+GWdT7Cwbz56HycQL8PoRB7QqA4rZT5gDfJh+ZJou3fkGu3uHRL7Q8ZNbPV6N6FeCj7tSxKFe2/oiYSx7BUhJm1BqlJDyJSo6r2n7AK/z5s4PeH37LUmLj3idzN/1L+Y3LR67eMSyLt36BfGQa8G1wCftU6+5q2OSFmv1WyaLeXyB86VUXlA1YzjxZ1PvnsrTbRzC4R7vO+/k6xFoIPBdEf2MjB1gwSvKQUlJm1RKlpDxblPwVJ1jHHLAM93mf9kvUJnbCbXLxhq+X39gfsrR7tyzq/XMsZx7KSJ6od8rire4540Ok5j0BdfWMS4FrsIiA81sWbL9f3CJrqmVXz5tORu37KHejcqS+1OJ7/bfzsn1G0XsikucdHV90LUNWCxy0J/Ht/r9x3bw8KfoCf9pxJxZHCnik90Pa41FfJJZBxi6RS9Zu8tZBcKgirJt2JViX4WCjcp9cunV12Ha5UfMCUMto9y3tMPxjEN+JJfblp/Cd/o+5TpunRJ/hbWO+gkgVqg17QBHu6v9r19oHFjZ/2nEnJ0VfABQGd0PWY0qvaPIAsfbzTXCPd2p2CVAPSOeyQfb2XwfyX377mhh9iXlJ9yPrUgpnhMkjmcWjFj6Z1/K7wsOvCgMv+nn4X6JFzzUPvz+MAPhElq7MM+uedwP/7Lev+S2/4cSI+/d5VfoaDju1V+yj3zmB1ek3ut4zPrKXS5K/LWzyDTzvvYR3rL2beWPPkAsfC9RBqxkxAhAAIqh03vsx4A4//RSSh/zAdYqf0wT3p95Mra3e7h+l+OkfknxoBvqfg7xHl4p42+Myb/N5Iis9VgExHIsRgCCZde8nAV+xvFOiz/LaxBrXe57NTWPL8EV+hgmULdm57MrNcL1nTsuqQpKP1Eves/lEW/bSnnGvG24oCyMAASKCkj7pXYCveIRLW3/BOMt9V/z3QzeS0jF+hgmEtNPOiqEbXO/psA4VKvqm9hS8/LwQTaRwWs+vt3j7WscIQMBI1zdy2Plb8OEnECPLlW0/xC3pZUZb+V3qJq9DBMZvhm5myHEvQ3Zl2w+JD+8unPV7wYo4SMt8WbDeY2SQoRhGACqAXPDLQ8DbcPMOG4UzYts5P/GQ6z292QvZnr3A6xC+2ZnrpDd7oes95yc2cZb1RCGRp1diHXfKvE1PeO/AUAwjABVCOu9dg/AVP328rvVu2iz3Y7LfDt3suvlWKbKa4P5Rkny0Wf28Lnl3IY+fp8AeINbWK3M3fMxbY8NoGAGoJMm+TwLu0T4utMgQl7WOnjwkjIjBtemrGHTcy49f1voTWoZ95PGzonnaxi3x1thQCkYAKoictTKD8Ak/fUyPP8a0uPvsd3NmCQftSX6GKYsD9kk8nLnU9Z5p8SeYHn3YewpvgHjbf8r5v6/LbLv1ghGACiOz7r0bWOenj8tbl9EixXfPHayqzgLWpa9ydVlOWBne0PpTv2W7M3Ql/8qjiYYSMQJQHXzNAtqsfha3uqc72Jq70Hul4TLYb59Mb3a26z1LkvcyRvfAsI9Q+WjrPxpnn8pjBKAKSOe9awB3755RmB3f4OomrGqxObPEzxAl8VBmCerihTghsocLEpsgfRDPtfuseFrmbhwp/bYhYIwAVA39hp/WIg6XjjIL6B7uIqOtfoZxZViTbB3l2G9p6z1YzjDk/Lz9k8u8NzaUgxGAahHPLfObYvzc2BZOjxZPRZcjPuoD6oee4TnkXI4cz4ht55xYT8Hhx+uxn2Up+Yg59qsSRgCqhEz99TBYvmt+XZR0L1i0bZT1uR+25tyLl85teaDwn6yPjGnR5BPG4696GAGoJuLc67eLs2NbXZ2Dnsufy5AGX4sipWN4IX9W0evtVh9nRbdBfhjsImW9S0Hi3/fe2FAuRgCqyZ7+9fhMKGph0+lSX1DV4tls8AVFns1NR7X41+W8+EOFMOacjwpcIuA4vvZKDOVhBKCKyNKVeUR8Vy46L+4eI/BsfqrfIV7dZ869z86jcQteo/0AosndMm+TxxRBBi8YAag26vguVTUx+pLrMuBFl6m6V17MuU//T4zsLjj95H0IgBWt6QSajYgRgGrjSCBRbVOizxa9dtCeFGhJsbzGOKgTi9sSeabwH9tvqH50lc8ODGViBKDa5KUniG6mRJ8pes0hEqhX4H57suv6/w9ilPdZn8UapUCCIXCMAFQZufCew8BLfvtxmwEA9Dnj/Q5Rcl9/ECPHhwBIzJauB3Z678DgBSMA4eA5RPgor6iqMwIDzji/Q5TcV4d1JOLPzxIgEjGbfyFgBCAMRHzEyBZoswZcswcHmS8w5bj39YdIRa+RfwDiEu5oqBhGAMJA1ffbzsImLsXfuHmN+x3ij31RfEPRwiZhHZn6q+1jFMsIQAgYAQiHQKa7MYoLQC5IAXDpq8XK8IeoP6/+/wCKDw8ig1eMAIRDIDXlLZeco0GWE3ct880xbr9+ZgBiZgBhYAQgDMTPYrmGEV/VihrzM6lxjAAYDE2MEQCDoYkxAmAwNDFGAAyGJsYIgMHQxBgBMBiaGCMABkMTYwTAYGhifHluGLzxyLa7f7lfpl7tt599+SnYREa8lpQUYyMH/Q4BQJ89nrS2jXgtgs3EaCG6efvBFhyP3sBnRbfuu/aia6tX4NAAQDRsA5qRNOPGHBL/abuiseJ/QIexHMK9em/pA0HxagBRDlH4XYbs/TgeFSAVHR9c8IKhZMwSwGBoYowAGAxNjBEAg6GJMQIQAocjp3eHbUOtMajjXwzbhmbECEAIDDLZV5HQRmSIsQfCtqEZMQJgMDQxRgAMhibGCIDB0MQYATAYmhjjCRgC23Y9v/hAXyPWwfCeFXhs+5jTAzTEUCJGAMLBUj8ptBsRUROXEgJmCWAwNDFGAAyGJsYIgMHQxBgBMBiaGCMABkMTY04BQqBjTPuzLYn4orDtCJq+VBqvR4EtLS19wVpjKAUjACFw8okn7PJxZF6zPLvXe0ag1kT8cMDmGErALAEMhibGCIDB0MQYATAYmhgjAAZDE2MEwGBoYowAGAxNjDkGDIGX9x86K5vNhm1G4PjxA3Cc5LhgrTGUghGAEOgfGDxj/2Hj93IsEUsCKmNkKAezBDAYmhgjAAZDE2MEwGBoYowAGAxNjBEAg6GJMacAoaCOSCPmwPQR4qiNGB9Z+xgBCIHpZ5zxM0QvDduOIFFVntmz33P7jrbkgwGaYygRswQIARVeDtuGoMk7jr8ObJ4JxBBDWRgBCAO1t4RtQtDk87av9pZlPxCQKYYyMAIQAm+eNmYr6Paw7QiS1PCw57bRiOTeN2fK/QGaYygRIwAhoSrLwrYhKFSVoYz32IZ4NLYxQHMMZWAEICTsRO5fgINh2xEE/UMZbI97ABFLNGFF3hmwSYYSMQIQEm89Y9whkM+GbYdfbMfhcCrluX1rLH73X3SdtDNAkwxl0IiH0XWDqsqPn0rdhcibw7bFG8rLB/vJeAxtbonHXvzg3Cmni4jPIwSDV8wMIERERFvb294FUnc74KrK3r5Bzw9/IhY72N7efoF5+MPFCEDIXDtFhg73Ja9U+PewbSkV23HYfaiPVDrjqX1rIvHkuPSUU97dObYh9kDqGbMEqCF+sGNovqX6BWBB2LaMhKIMDA1zeDDladMvHo2kksnY3//l7MlfqoB5Bg8YAagxVFV+vDM9H7hOVC9TOA04MRRbUGzbIZe3SQ0PM5TJlvXgRyIRxxKG47HoE5ZY337/ayd900z5awsjAHXAr57SxKF4X2up9z/Z8+yV2UzuLr/jHhuwlGhNvOfkk078faltT0jHDrxt3oR+vzYYKosJBqoDrp4qw0DJrnYf+MmDg6LBBtdl++09n7t88q5AOzWEjtkENBiaGCMABkMTYwSgAbE04Pl/hfo0hI8RgAbEsdR7Zo5iiLMv8D4NoWMEoAGx7OhLQfcZyUUC79MQPkYAGpCv3Nr1HPB0YB0KO++8be7zgfVnqBmMADQoit4dVF8CPwuqL0NtYQSgQdF8/k7Ae5zuH0mJRIzrboNiBKBB+dptC18S+JzffhT+4cs3dTVcElNDAeMK3Mioygd+uukHovInXpoL+rOv3HzxzYiYI8AGxcwAGhkRpXXCn4F8u/y23GWp8zbz8Dc2ZgbQJPz1Tzb9GcpngVPd7lPheXH07/711nnfq5JphhAxAtBEfOjH65O2WNercIMorwE5Igb6AliPiXJPXyp173feudRbpg9D3fG/b2ho8ZJVVCMAAAAASUVORK5CYII=;" vertex="1" parent="1">
                    <mxGeometry x="1390" y="470" width="180" height="180" as="geometry"/>
                </mxCell>
                <mxCell id="118" value="" style="group;rotation=90;" vertex="1" connectable="0" parent="1">
                    <mxGeometry x="1360" y="850" width="256" height="256" as="geometry"/>
                </mxCell>
                <mxCell id="120" value="" style="group;rotation=90;" vertex="1" connectable="0" parent="118">
                    <mxGeometry width="256" height="256" as="geometry"/>
                </mxCell>
                <mxCell id="108" value="" style="shape=image;verticalLabelPosition=bottom;labelBackgroundColor=default;verticalAlign=top;aspect=fixed;imageAspect=0;image=data:image/png,iVBORw0KGgoAAAANSUhEUgAAAQAAAAEACAYAAABccqhmAAAABHNCSVQICAgIfAhkiAAAAAlwSFlzAAAHYgAAB2IBOHqZ2wAAABl0RVh0U29mdHdhcmUAd3d3Lmlua3NjYXBlLm9yZ5vuPBoAAAp8SURBVHic7d1NjBtnHcfx3zNje71v2by/NDSNgAq1iL5Q1MIBCYFEOSGEiqgQXLkWIYHEbYV6QY3KnQucUMWhXIvooTc4oBbaQpoUFQKtINlsNvuWtT2eeTgEKtI0K3s868nO7/s5bjSzf21mvvbjscdB2Le+sLzcSnX251J8SlJ33O1jUWjQ66nIslK/P2233knnrn7yleXlXqkdoHZJ3QOgvFRnnpbit1Xi5JekkCTqdEttKknKs+FHi53j50rvALUjAPtYDMl9k+4jJJMdAlHxE5POgPoQgH0siUWoewZF1T8DSiMAgDECABgjAIAxAgAYIwCAMQIAGCMAgDECABgjAIAxAgAYIwCAMQIAGCMAgDECABgjAICxVt0D7Hcb5x47OhPDyWFIZ6b9u5/rv3PPv/IDE++n194qve1iR4svnXvisTLbJtu9A0meHS2G+dh/u3YSt4at5C/d5bculvnduImbOZSwce6xo50k/WGUvinpTN3z7GsxSv2BtLmtsLMjxfE2D610WHQ6r4aZ1neIwfgIwJh6zz/xZYX4Qow6VPcsjbPTV1hZvRmFMcUkxGR+/kczz174yR5M1lgEYAw7zz/+eUkvS+rUPUtj9QcKl1fGfiYg6ebRvDD//e6zF39a9VhNRQBGFJ97aL6Xdt+WdKruWZourG9I1zfLbZwk+czS7MmwfPFqtVM1E1cBRrSTdr8rTv6piAcWpVDy0CyKtD/Qz6qdqLkIwIhC0NfrnsFGCIqzE1xUyQZfrG6YZiMAo4p6sO4RrHTKX6EOw3yxwkkajQCMjlf9p6nsEkBSjAXH9Yj4Q42OF0ynKUzw5y5zBcEUAQCMEQDAGAEAjBEAwBifBjQUOolaDxxQeqwrRSlf6Wn41obioKh7NEwZAXDTCuo8cVRhLn3/R+mpWSVLHfV/tyINeQndCUsAM62zC7ec/P8T5lK1zi7UMBHqRADMJAfbpf4NzUQA3CS7vMFmt39DIxEAwBgBAIxxFaDBwmJLoXPrC36hdeen+aEVlBy59WO4cZArbg73ZD7UjwA0UJhN1X7ooJKD4925LCy21fnM4dt+XqwNlL1xXXEnr2pE3CVYAjRNEtT59OGxT/5dd3moo86jh3iRsIEIQMOkx2YUFqp/YhcW20qPTv2rD7DHCEDDhNnb3+RT2b7nWDE2DQFomHhj79bpxY1sz/aNehCAhslXeirWqz9Ri+uZipV+5ftFvQhA00Qpe22t0pO1WOkr++Mat9pqIBZ1DRT7uQavXlPopgoztza+9cCSkqUPf89/sZ5peH79A/sqFHtc/msqAtBgsZfffvIWuzyMF3FPlg+4e7EEAIwRAMAYAXCz2xIg51U+NwTATLE2KPVvaCYCYGb4t23F7ds/3Re3hxpe2q5hItSJqwBuiqj+71fVvn9ByYnuzR9d7in76xZLAEMEwNGwUHZ+Qzq/UfckqBlLAMAYAQCMEQDAGAEAjBEAwBgBAIwRAMAYAQCMEQDAGO8EHNG7R47VPYKV9aUjunbPvRPs4b3KZmkyAjCiX3zpybpHsHJ5mOlSf5JPJ75U2SxNxhIAMEYAAGMEADBGAABjBAAwRgAAYwQAMEYAAGMEADBGAABjBAAwRgAAYwQAMEYAAGMEADBGAABjBAAwRgAAYwQAMEYAAGMEADBGAABjBAAwRgAAYwQAMEYAAGMEADBGAABjBAAwRgAAYwQAMEYAAGMEADBGAABjBAAwRgAAYwQAMEYAAGMEADBGAABjBAAwRgAAYwQAMEYAAGMEADBGAABjBAAwRgAAYwQAMEYAAGMEADBGAABjBAAwRgAAYwQAMEYAAGMEADBGAABjBAAwRgAAYwQAMNaqewAXazcy/WtzRzHWPcney7Jc165tqciLsbcNSaKPnVrS7JHZPZgMH0QApuDfGz29/PYVRYez/7/iINfwynqpbS/9/aoefPgjSo7PVTwVPoglwBRcWrthdfJLUuikUqv84fXPd69XOA3uhABMwbDwOvnfF0LpTWMx/vIB4yMAgDECABgjAIAxAgAYIwCAMQIAGCMAgDECABgjAIAxAgAYIwCAMQIAGCMAgDECABgjAIAxAgAYIwCAMQIAGCMAgDECMAWdtPy98fa1Ce6FmE5wQ1GMjr/yFNx/fEEzZgd0sT2QSnwvgHTzuwHu//jRiifCh+F7AabgYLejr33qtNZuDCZ5UNw3Blmuzc2edN/hsbdNEum+4we01ZIu9Qd7MB3+HwGYkk6a6MRit+4xpufI/ESbbw2zigbBbryelwK4BQEAjBEAwBgBAIwRAMAYAQCMEQDAGAEAjBEAwBgBAIwRAMAYAQCMEQDAGJ8GnJJhEbXRyxQNPg48zAtt3eiX2jZR0KnD8zw0TQkBmIKNXqbfXLisXpbXPcrUFNt95WvbpbYNaaLHP3tWmuPw3Gt0dgouXtmyOvklKZmfkdJyh1fMC114e6XiifBhCMAU9EveGmvfS8rfC3FoFsy6EADAGAEAjBEAwBgBAIwRAMAYAQCMEQDAGAEAjBEAwBgBAIwRAMAYAQCMEQDAGAEAjBEAwBgBAIwRAMAYAQCMEQDAGAGYgpL3xrQWJrifIEbHoTkF9x6ak+R1QMdBLk1wY8/T9xyscBrcCTden4LTB2b1lQdOamWzJ4PvBdEwL7R6dUvFmcMltg46c3JJS8fndKk/qHw23IoATMmx+Y6OzXfqHmN6Tk/2CH55mFU0CHbDEgAwRgAAYwQAMEYAAGMEADBGAABjBAAwRgAAYwQAMEYAAGMEADBGAABjBAAwxqcBRzSTDesewUq7KJTWPYQBAjCiH/z6hbpH8LK5rXDteunNuxWO0mQsAQBjBAAwRgAAYwQAMEYAAGMEADBGAABjBAAwRgAAYwQAMEYAAGMEADBGAABjBAAwRgAAYwQAMEYAAGPcEaipkqDkUEehm0ghlNtHjIr9XMW1TCpitfPhrkAAGigsttR5+JDCfDX/vXFrqMHra4qb3BexaVgCNE0a1HnkcGUnvySFhZY6jxyWkpLPJHDXIgANkx7vKsxVfz/dMJcqPTFT+X5RLwLQMGFm726mHWZYMTYNAWiYYmvv1unFZrZn+0Y9CEDDFFd7Kq72q9/val/FavX7Rb0IQAMNXr+u/L0dKVZw6S5G5e/e0OBP5b+kA3cvFnVNlBXK3ryu7HxQ6Ez2mkAc5FLOewCaigA0WR4Vd7h2jztjCQAYIwCAMQIAGCMAgDECABgjAIAxAgAYIwCAMQIAGCMAgDECMLqi7gGcBE3w+YOy90A0RABGd6XuAZzEYV5625CE8hubIQAjC6/VPYGTkJX/EFORtlYrHKXRCMCoYnyh7hFs5IW00yu/faf1YnXDNBsBGFF3c+6Xinqz7jkchPWN0tvGdqvXbXeeqXCcRiMAIwrLrwxDWjwl6VrdszTa9o60tV1u2ySJrbm5r4blPw+qHaq5CMAYut/7w4UQ9TkpvlH3LI0To8L6psLqmspcAIjtVi9dXHiy/ePzv61+uObiekkJ8VffSHvv/eNbivFpSY9KOiFiOr4YpWEu7fQVtralbMy7DqdJEVutq2q3Xuy2O8/wyD++/wA/A0R8GXInIQAAAABJRU5ErkJggg==;rotation=90;" vertex="1" parent="120">
                    <mxGeometry width="256" height="256" as="geometry"/>
                </mxCell>
                <mxCell id="114" value="1.5 V" style="text;html=1;strokeColor=none;fillColor=none;align=center;verticalAlign=middle;whiteSpace=wrap;rounded=0;fontSize=24;fontStyle=1;fontColor=#136E48;rotation=90;" vertex="1" parent="120">
                    <mxGeometry x="131" y="113" width="60" height="30" as="geometry"/>
                </mxCell>
                <mxCell id="117" value="1 A" style="text;html=1;strokeColor=none;fillColor=none;align=center;verticalAlign=middle;whiteSpace=wrap;rounded=0;fontSize=21;fontStyle=1;fontColor=#83F29B;rotation=90;" vertex="1" parent="120">
                    <mxGeometry x="84" y="103" width="60" height="30" as="geometry"/>
                </mxCell>
                <mxCell id="119" value="" style="group;rotation=90;" vertex="1" connectable="0" parent="1">
                    <mxGeometry x="1360" y="660" width="256" height="256" as="geometry"/>
                </mxCell>
                <mxCell id="109" value="" style="shape=image;verticalLabelPosition=bottom;labelBackgroundColor=default;verticalAlign=top;aspect=fixed;imageAspect=0;image=data:image/png,iVBORw0KGgoAAAANSUhEUgAAAQAAAAEACAYAAABccqhmAAAABHNCSVQICAgIfAhkiAAAAAlwSFlzAAAHYgAAB2IBOHqZ2wAAABl0RVh0U29mdHdhcmUAd3d3Lmlua3NjYXBlLm9yZ5vuPBoAAAp8SURBVHic7d1NjBtnHcfx3zNje71v2by/NDSNgAq1iL5Q1MIBCYFEOSGEiqgQXLkWIYHEbYV6QY3KnQucUMWhXIvooTc4oBbaQpoUFQKtINlsNvuWtT2eeTgEKtI0K3s868nO7/s5bjSzf21mvvbjscdB2Le+sLzcSnX251J8SlJ33O1jUWjQ66nIslK/P2233knnrn7yleXlXqkdoHZJ3QOgvFRnnpbit1Xi5JekkCTqdEttKknKs+FHi53j50rvALUjAPtYDMl9k+4jJJMdAlHxE5POgPoQgH0siUWoewZF1T8DSiMAgDECABgjAIAxAgAYIwCAMQIAGCMAgDECABgjAIAxAgAYIwCAMQIAGCMAgDECABgjAICxVt0D7Hcb5x47OhPDyWFIZ6b9u5/rv3PPv/IDE++n194qve1iR4svnXvisTLbJtu9A0meHS2G+dh/u3YSt4at5C/d5bculvnduImbOZSwce6xo50k/WGUvinpTN3z7GsxSv2BtLmtsLMjxfE2D610WHQ6r4aZ1neIwfgIwJh6zz/xZYX4Qow6VPcsjbPTV1hZvRmFMcUkxGR+/kczz174yR5M1lgEYAw7zz/+eUkvS+rUPUtj9QcKl1fGfiYg6ebRvDD//e6zF39a9VhNRQBGFJ97aL6Xdt+WdKruWZourG9I1zfLbZwk+czS7MmwfPFqtVM1E1cBRrSTdr8rTv6piAcWpVDy0CyKtD/Qz6qdqLkIwIhC0NfrnsFGCIqzE1xUyQZfrG6YZiMAo4p6sO4RrHTKX6EOw3yxwkkajQCMjlf9p6nsEkBSjAXH9Yj4Q42OF0ynKUzw5y5zBcEUAQCMEQDAGAEAjBEAwBifBjQUOolaDxxQeqwrRSlf6Wn41obioKh7NEwZAXDTCuo8cVRhLn3/R+mpWSVLHfV/tyINeQndCUsAM62zC7ec/P8T5lK1zi7UMBHqRADMJAfbpf4NzUQA3CS7vMFmt39DIxEAwBgBAIxxFaDBwmJLoXPrC36hdeen+aEVlBy59WO4cZArbg73ZD7UjwA0UJhN1X7ooJKD4925LCy21fnM4dt+XqwNlL1xXXEnr2pE3CVYAjRNEtT59OGxT/5dd3moo86jh3iRsIEIQMOkx2YUFqp/YhcW20qPTv2rD7DHCEDDhNnb3+RT2b7nWDE2DQFomHhj79bpxY1sz/aNehCAhslXeirWqz9Ri+uZipV+5ftFvQhA00Qpe22t0pO1WOkr++Mat9pqIBZ1DRT7uQavXlPopgoztza+9cCSkqUPf89/sZ5peH79A/sqFHtc/msqAtBgsZfffvIWuzyMF3FPlg+4e7EEAIwRAMAYAXCz2xIg51U+NwTATLE2KPVvaCYCYGb4t23F7ds/3Re3hxpe2q5hItSJqwBuiqj+71fVvn9ByYnuzR9d7in76xZLAEMEwNGwUHZ+Qzq/UfckqBlLAMAYAQCMEQDAGAEAjBEAwBgBAIwRAMAYAQCMEQDAGO8EHNG7R47VPYKV9aUjunbPvRPs4b3KZmkyAjCiX3zpybpHsHJ5mOlSf5JPJ75U2SxNxhIAMEYAAGMEADBGAABjBAAwRgAAYwQAMEYAAGMEADBGAABjBAAwRgAAYwQAMEYAAGMEADBGAABjBAAwRgAAYwQAMEYAAGMEADBGAABjBAAwRgAAYwQAMEYAAGMEADBGAABjBAAwRgAAYwQAMEYAAGMEADBGAABjBAAwRgAAYwQAMEYAAGMEADBGAABjBAAwRgAAYwQAMEYAAGMEADBGAABjBAAwRgAAYwQAMEYAAGMEADBGAABjBAAwRgAAYwQAMEYAAGMEADBGAABjBAAwRgAAYwQAMNaqewAXazcy/WtzRzHWPcney7Jc165tqciLsbcNSaKPnVrS7JHZPZgMH0QApuDfGz29/PYVRYez/7/iINfwynqpbS/9/aoefPgjSo7PVTwVPoglwBRcWrthdfJLUuikUqv84fXPd69XOA3uhABMwbDwOvnfF0LpTWMx/vIB4yMAgDECABgjAIAxAgAYIwCAMQIAGCMAgDECABgjAIAxAgAYIwCAMQIAGCMAgDECABgjAIAxAgAYIwCAMQIAGCMAgDECMAWdtPy98fa1Ce6FmE5wQ1GMjr/yFNx/fEEzZgd0sT2QSnwvgHTzuwHu//jRiifCh+F7AabgYLejr33qtNZuDCZ5UNw3Blmuzc2edN/hsbdNEum+4we01ZIu9Qd7MB3+HwGYkk6a6MRit+4xpufI/ESbbw2zigbBbryelwK4BQEAjBEAwBgBAIwRAMAYAQCMEQDAGAEAjBEAwBgBAIwRAMAYAQCMEQDAGJ8GnJJhEbXRyxQNPg48zAtt3eiX2jZR0KnD8zw0TQkBmIKNXqbfXLisXpbXPcrUFNt95WvbpbYNaaLHP3tWmuPw3Gt0dgouXtmyOvklKZmfkdJyh1fMC114e6XiifBhCMAU9EveGmvfS8rfC3FoFsy6EADAGAEAjBEAwBgBAIwRAMAYAQCMEQDAGAEAjBEAwBgBAIwRAMAYAQCMEQDAGAEAjBEAwBgBAIwRAMAYAQCMEQDAGAGYgpL3xrQWJrifIEbHoTkF9x6ak+R1QMdBLk1wY8/T9xyscBrcCTden4LTB2b1lQdOamWzJ4PvBdEwL7R6dUvFmcMltg46c3JJS8fndKk/qHw23IoATMmx+Y6OzXfqHmN6Tk/2CH55mFU0CHbDEgAwRgAAYwQAMEYAAGMEADBGAABjBAAwRgAAYwQAMEYAAGMEADBGAABjBAAwxqcBRzSTDesewUq7KJTWPYQBAjCiH/z6hbpH8LK5rXDteunNuxWO0mQsAQBjBAAwRgAAYwQAMEYAAGMEADBGAABjBAAwRgAAYwQAMEYAAGMEADBGAABjBAAwRgAAYwQAMEYAAGPcEaipkqDkUEehm0ghlNtHjIr9XMW1TCpitfPhrkAAGigsttR5+JDCfDX/vXFrqMHra4qb3BexaVgCNE0a1HnkcGUnvySFhZY6jxyWkpLPJHDXIgANkx7vKsxVfz/dMJcqPTFT+X5RLwLQMGFm726mHWZYMTYNAWiYYmvv1unFZrZn+0Y9CEDDFFd7Kq72q9/val/FavX7Rb0IQAMNXr+u/L0dKVZw6S5G5e/e0OBP5b+kA3cvFnVNlBXK3ryu7HxQ6Ez2mkAc5FLOewCaigA0WR4Vd7h2jztjCQAYIwCAMQIAGCMAgDECABgjAIAxAgAYIwCAMQIAGCMAgDECMLqi7gGcBE3w+YOy90A0RABGd6XuAZzEYV5625CE8hubIQAjC6/VPYGTkJX/EFORtlYrHKXRCMCoYnyh7hFs5IW00yu/faf1YnXDNBsBGFF3c+6Xinqz7jkchPWN0tvGdqvXbXeeqXCcRiMAIwrLrwxDWjwl6VrdszTa9o60tV1u2ySJrbm5r4blPw+qHaq5CMAYut/7w4UQ9TkpvlH3LI0To8L6psLqmspcAIjtVi9dXHiy/ePzv61+uObiekkJ8VffSHvv/eNbivFpSY9KOiFiOr4YpWEu7fQVtralbMy7DqdJEVutq2q3Xuy2O8/wyD++/wA/A0R8GXInIQAAAABJRU5ErkJggg==;rotation=90;" vertex="1" parent="119">
                    <mxGeometry width="256" height="256" as="geometry"/>
                </mxCell>
                <mxCell id="115" value="3.7 V" style="text;html=1;strokeColor=none;fillColor=none;align=center;verticalAlign=middle;whiteSpace=wrap;rounded=0;fontSize=24;fontStyle=1;fontColor=#136E48;rotation=90;" vertex="1" parent="119">
                    <mxGeometry x="131" y="113" width="60" height="30" as="geometry"/>
                </mxCell>
                <mxCell id="116" value="2 A" style="text;html=1;strokeColor=none;fillColor=none;align=center;verticalAlign=middle;whiteSpace=wrap;rounded=0;fontSize=21;fontStyle=1;fontColor=#83f29b;rotation=90;" vertex="1" parent="119">
                    <mxGeometry x="84" y="104" width="60" height="30" as="geometry"/>
                </mxCell>
                <mxCell id="121" value="" style="endArrow=none;html=1;strokeWidth=10;exitX=0.5;exitY=0;exitDx=0;exitDy=0;entryX=0.5;entryY=0;entryDx=0;entryDy=0;edgeStyle=orthogonalEdgeStyle;strokeColor=#76608a;" edge="1" parent="1" source="108" target="109">
                    <mxGeometry width="50" height="50" relative="1" as="geometry">
                        <mxPoint x="460" y="750" as="sourcePoint"/>
                        <mxPoint x="460" y="716" as="targetPoint"/>
                        <Array as="points">
                            <mxPoint x="1650" y="978"/>
                            <mxPoint x="1650" y="788"/>
                        </Array>
                    </mxGeometry>
                </mxCell>
                <mxCell id="122" value="" style="endArrow=none;html=1;strokeWidth=10;exitX=0.5;exitY=1;exitDx=0;exitDy=0;entryX=0.5;entryY=1;entryDx=0;entryDy=0;edgeStyle=orthogonalEdgeStyle;strokeColor=#76608a;" edge="1" parent="1" source="108" target="109">
                    <mxGeometry width="50" height="50" relative="1" as="geometry">
                        <mxPoint x="1240" y="970" as="sourcePoint"/>
                        <mxPoint x="1240" y="780" as="targetPoint"/>
                        <Array as="points">
                            <mxPoint x="1330" y="978"/>
                            <mxPoint x="1330" y="788"/>
                        </Array>
                    </mxGeometry>
                </mxCell>
                <mxCell id="123" value="" style="endArrow=none;html=1;strokeWidth=10;entryX=0.333;entryY=0.833;entryDx=0;entryDy=0;entryPerimeter=0;edgeStyle=orthogonalEdgeStyle;strokeColor=#76608a;" edge="1" parent="1" target="112">
                    <mxGeometry width="50" height="50" relative="1" as="geometry">
                        <mxPoint x="1360" y="790" as="sourcePoint"/>
                        <mxPoint x="1369.9999999999995" y="798" as="targetPoint"/>
                        <Array as="points">
                            <mxPoint x="1330" y="790"/>
                            <mxPoint x="1330" y="620"/>
                        </Array>
                    </mxGeometry>
                </mxCell>
                <mxCell id="124" value="" style="endArrow=none;html=1;strokeWidth=10;entryX=0.5;entryY=1;entryDx=0;entryDy=0;edgeStyle=orthogonalEdgeStyle;strokeColor=#76608a;" edge="1" parent="1" target="112">
                    <mxGeometry width="50" height="50" relative="1" as="geometry">
                        <mxPoint x="1620" y="790" as="sourcePoint"/>
                        <mxPoint x="1459.9400000000005" y="629.94" as="targetPoint"/>
                        <Array as="points">
                            <mxPoint x="1650" y="790"/>
                            <mxPoint x="1650" y="650"/>
                        </Array>
                    </mxGeometry>
                </mxCell>
                <mxCell id="125" value="Vt = v1 + v2 + .....&lt;br&gt;&lt;br&gt;At = min(a1, a2, .....)" style="text;html=1;strokeColor=none;fillColor=none;align=left;verticalAlign=middle;whiteSpace=wrap;rounded=0;fontSize=30;fontColor=#a0522d;fontStyle=1" vertex="1" parent="1">
                    <mxGeometry x="710" y="560" width="310" height="120" as="geometry"/>
                </mxCell>
                <mxCell id="126" value="Vt&amp;nbsp; &amp;nbsp; : Total volt atau tegangan&lt;br style=&quot;font-size: 26px;&quot;&gt;At&amp;nbsp; &amp;nbsp; : Total amper&lt;br&gt;min : Nilai terkecil" style="text;html=1;strokeColor=none;fillColor=none;align=left;verticalAlign=middle;whiteSpace=wrap;rounded=0;fontSize=26;fontColor=#a0522d;fontStyle=1" vertex="1" parent="1">
                    <mxGeometry x="710" y="690" width="420" height="120" as="geometry"/>
                </mxCell>
                <mxCell id="127" value="Tegangan bertambah, ampere tetap." style="rounded=1;whiteSpace=wrap;html=1;fontSize=26;fontColor=#ffffff;fillColor=#a0522d;strokeColor=none;fontStyle=1" vertex="1" parent="1">
                    <mxGeometry x="730" y="886" width="350" height="110" as="geometry"/>
                </mxCell>
                <mxCell id="128" value="Vt = v1 = v2 = .....&lt;br&gt;&lt;br&gt;At = a1 + a2 + ....." style="text;html=1;strokeColor=none;fillColor=none;align=left;verticalAlign=middle;whiteSpace=wrap;rounded=0;fontSize=30;fontColor=#76608a;fontStyle=1" vertex="1" parent="1">
                    <mxGeometry x="1690" y="560" width="310" height="120" as="geometry"/>
                </mxCell>
                <mxCell id="129" value="Vt&amp;nbsp; &amp;nbsp; : Total volt atau tegangan&lt;br style=&quot;font-size: 26px;&quot;&gt;At&amp;nbsp; &amp;nbsp; : Total amper&lt;br&gt;min : Nilai terkecil" style="text;html=1;strokeColor=none;fillColor=none;align=left;verticalAlign=middle;whiteSpace=wrap;rounded=0;fontSize=26;fontColor=#76608a;fontStyle=1" vertex="1" parent="1">
                    <mxGeometry x="1690" y="690" width="420" height="120" as="geometry"/>
                </mxCell>
                <mxCell id="130" value="Tegangan tetap, ampere bertambah." style="rounded=1;whiteSpace=wrap;html=1;fontSize=26;fontColor=#ffffff;fillColor=#76608a;strokeColor=none;fontStyle=1" vertex="1" parent="1">
                    <mxGeometry x="1710" y="886" width="350" height="110" as="geometry"/>
                </mxCell>
            </root>
        </mxGraphModel>
    </diagram>
</mxfile>